<svg width="15" height="16" viewBox="0 0 15 16" fill="none" xmlns="http://www.w3.org/2000/svg">
<path d="M7.64081 8.45409L7.68569 8.46245L7.73134 8.46254C8.29923 8.46368 8.70937 8.55813 9.04031 8.71835C9.37201 8.87895 9.65831 9.12209 9.95612 9.47245C10.2593 9.82913 10.5568 10.2749 10.9248 10.834C10.943 10.8618 10.9615 10.8898 10.98 10.918C11.3248 11.4421 11.7231 12.0477 12.2205 12.719C12.6701 13.6239 12.5248 14.1936 12.2353 14.4896C11.9155 14.8166 11.226 15.0251 10.1697 14.7864C9.09254 14.2441 8.27459 14.0262 7.42742 14.0546L7.42677 14.0547C6.7167 14.0794 6.23727 14.3173 5.8392 14.5149C5.8051 14.5318 5.77161 14.5484 5.73861 14.5646C5.33906 14.7604 4.96822 14.9195 4.33421 14.8942L4.33422 14.8942L4.32774 14.894C3.80736 14.88 3.50089 14.765 3.32402 14.6311C3.15949 14.5066 3.05785 14.329 3.02171 14.0644L3.02161 14.0637C2.93992 13.4721 3.14128 13.1178 3.51489 12.4603L3.52738 12.4383L3.52758 12.4379C4.24504 11.1727 4.95112 10.0849 5.6685 9.35522C6.38979 8.62155 7.0297 8.34029 7.64081 8.45409ZM12.3532 9.31947L12.3529 9.31938C12.1212 9.22773 11.9072 8.97614 11.8146 8.52241C11.7231 8.07402 11.7699 7.49123 12.0063 6.89349C12.2427 6.29576 12.6072 5.83885 12.9806 5.57449C13.3584 5.307 13.6866 5.26982 13.9185 5.36152C14.1503 5.45317 14.3642 5.70476 14.4568 6.15848C14.5483 6.60688 14.5016 7.18967 14.2652 7.78741C14.0288 8.385 13.664 8.84194 13.2904 9.10637C12.9122 9.37402 12.5842 9.41095 12.3532 9.31947ZM5.01969 0.546359C5.3842 0.546359 5.78053 0.773484 6.10952 1.27765C6.43549 1.77717 6.65348 2.49673 6.65348 3.31658C6.65348 4.13642 6.43549 4.85598 6.10952 5.35551C5.78053 5.85967 5.3842 6.0868 5.01969 6.0868C4.65503 6.0868 4.25873 5.85981 3.92983 5.35593C3.60397 4.85669 3.38597 4.1373 3.38591 3.31692C3.38648 2.49685 3.60452 1.77715 3.93039 1.27757C4.25926 0.773383 4.65528 0.546359 5.01969 0.546359ZM0.735936 7.78741C0.499507 7.18967 0.452789 6.60688 0.544286 6.15848C0.636871 5.70476 0.850831 5.45317 1.08259 5.36152C1.31447 5.26982 1.64267 5.307 2.02047 5.57449C2.39386 5.83885 2.75839 6.29576 2.99481 6.89349C3.23124 7.49123 3.27796 8.07402 3.18646 8.52241C3.09388 8.97614 2.87992 9.22773 2.64816 9.31938C2.41628 9.41108 2.08808 9.3739 1.71028 9.10641C1.33689 8.84205 0.972363 8.38513 0.735936 7.78741ZM9.94256 0.5C10.3071 0.5 10.7034 0.727125 11.0324 1.23129C11.3584 1.73081 11.5763 2.45037 11.5763 3.27022C11.5763 4.09006 11.3584 4.80962 11.0324 5.30915C10.7034 5.81331 10.3071 6.04044 9.94256 6.04044C9.5779 6.04044 9.1816 5.81345 8.8527 5.30957C8.52679 4.81026 8.30878 4.09074 8.30878 3.27022C8.30941 2.45028 8.52743 1.73072 8.85326 1.23121C9.18213 0.727024 9.57815 0.5 9.94256 0.5Z" stroke="#8F8B8B"/>
</svg>
