<svg width="40" height="42" viewBox="0 0 40 42" fill="none" xmlns="http://www.w3.org/2000/svg">
<g clip-path="url(#clip0_1_2)">
<path fill-rule="evenodd" clip-rule="evenodd" d="M13.3846 0.123622C16.5252 0.123622 19.0745 4.0294 19.0745 8.84397C19.0745 13.6585 16.5252 17.5643 13.3846 17.5643C10.2439 17.5643 7.69463 13.6619 7.69463 8.84397C7.69797 4.0294 10.2439 0.123622 13.3846 0.123622ZM20.6181 21.2329C27.2803 21.2462 28.1089 25.6599 33.7254 33.2142C36.5252 38.7103 32.8901 42.1751 26.6589 40.6916C23.8323 39.2516 21.8443 38.7437 19.8497 38.8106C16.3949 38.9308 15.5229 41.2095 11.5035 41.0491C8.40295 40.9656 7.00636 39.6659 6.73573 37.6846C6.44505 35.5797 7.25694 34.2499 8.24592 32.5092C12.0882 25.7334 16.0608 20.3842 20.6181 21.2329ZM2.3956 13.0571C0.0467871 13.986 -0.701626 17.6579 0.721695 21.2563C2.14502 24.8547 5.20215 27.0197 7.55096 26.0909C9.89978 25.162 10.6482 21.4901 9.22487 17.8917C7.80155 14.2933 4.74441 12.1283 2.3956 13.0571ZM37.6044 13.0571C39.9532 13.986 40.7016 17.6579 39.2783 21.2563C37.855 24.8547 34.7945 27.0197 32.4491 26.0909C30.1002 25.162 29.3518 21.4901 30.7752 17.8917C32.1985 14.2933 35.2556 12.1283 37.6044 13.0571ZM26.5119 0C29.6525 0 32.2018 3.90578 32.2018 8.72035C32.2018 13.5349 29.6525 17.4407 26.5119 17.4407C23.3712 17.4407 20.8219 13.5383 20.8219 8.72035C20.8253 3.90578 23.3712 0 26.5119 0Z" fill="black"/>
</g>
<defs>
<clipPath id="clip0_1_2">
<rect width="40" height="41.0558" fill="white"/>
</clipPath>
</defs>
</svg>
