<svg width="200" height="56" viewBox="0 0 200 56" fill="none" xmlns="http://www.w3.org/2000/svg">
<path d="M7.82167 23.6905C7.47263 23.6905 7.21878 23.6291 7.06013 23.5062C6.90148 23.3833 6.82215 23.1733 6.82215 22.8763V18.7742C6.53657 18.5796 6.00772 18.4106 5.2356 18.2672C4.47406 18.1136 3.73896 18.0163 3.0303 17.9753C2.81876 18.3235 2.63895 18.8561 2.49088 19.5731L2.39568 20.0494C2.22645 20.8893 2.07309 21.5704 1.93559 22.0927C1.79809 22.6151 1.62885 23.035 1.42789 23.3525C0.592311 23.3525 0.116347 23.1426 0 22.7226C0.200962 22.4461 0.470675 21.4628 0.809138 19.7728C1.09472 18.3287 1.44905 16.4082 1.87212 14.0115C2.35866 11.2256 2.8029 8.88523 3.20482 6.9904C3.60675 5.08532 4.02983 3.4824 4.47406 2.18162C4.9606 0.727206 5.43656 0 5.90195 0C6.35676 0 6.7058 0.0921811 6.94907 0.276543C6.94907 1.05496 7.16061 3.07782 7.58369 6.34513C8.00677 9.61244 8.21831 11.7633 8.21831 12.7978C8.21831 13.7811 8.33465 15.3686 8.56735 17.5605C8.78946 19.8138 8.90052 21.5038 8.90052 22.6305C8.90052 23.3372 8.54091 23.6905 7.82167 23.6905ZM6.12407 16.9306C6.31445 16.9306 6.53657 16.8999 6.79042 16.8384C6.75869 16.3877 6.64763 15.2457 6.45724 13.4123C5.96012 8.55748 5.71157 5.65889 5.71157 4.7166C5.71157 4.56296 5.71685 4.47078 5.72743 4.44005C5.51589 4.6449 5.21974 5.59232 4.83897 7.2823C4.45819 8.97229 4.10387 10.7903 3.77598 12.7364C3.44809 14.6722 3.26828 15.9524 3.23655 16.5772C4.15675 16.8128 5.11926 16.9306 6.12407 16.9306Z" fill="#907910"/>
<path d="M15.8496 14.9487C15.8496 14.3546 15.9131 13.9142 16.04 13.6274C16.04 12.7773 16.0241 11.5175 15.9924 9.84801C15.9607 8.16827 15.9448 6.90846 15.9448 6.06859C15.9448 5.77156 15.9818 5.37211 16.0558 4.87023C16.1299 4.36836 16.1669 3.96891 16.1669 3.67188C16.1669 3.45679 16.0823 3.27243 15.9131 3.11879C15.7544 2.96516 15.564 2.88834 15.3419 2.88834C14.5909 2.88834 14.2155 3.88185 14.2155 5.86886C14.2155 6.52437 14.2789 7.50764 14.4058 8.81866V9.04911C14.4058 10.7289 14.3371 13.0692 14.1996 16.0702C14.0621 19.0917 13.9933 21.4372 13.9933 23.1067C13.9933 23.3628 14.0832 23.5984 14.263 23.8134C14.4534 24.0285 14.6703 24.1361 14.9135 24.1361C15.3155 24.1361 15.6857 24.0388 16.0241 23.8442C17.1664 23.8442 18.1342 23.9671 18.9275 24.2129C19.1919 24.1822 19.4193 24.09 19.6097 23.9364C19.8107 23.7827 19.9112 23.5984 19.9112 23.3833C19.9112 22.7687 19.3294 22.4615 18.166 22.4615C17.8698 22.4615 17.6212 22.4666 17.4203 22.4768L16.8174 22.5075C16.0876 22.5075 15.7227 21.7855 15.7227 20.3413C15.7227 19.6346 15.7438 18.7947 15.7861 17.8217C15.8284 16.8487 15.8496 16.019 15.8496 15.3328V14.9487Z" fill="#907910"/>
<path d="M26.3843 14.9487C26.3843 14.3546 26.4477 13.9142 26.5746 13.6274C26.5746 12.7773 26.5588 11.5175 26.5271 9.84801C26.4953 8.16827 26.4795 6.90846 26.4795 6.06859C26.4795 5.77156 26.5165 5.37211 26.5905 4.87023C26.6646 4.36836 26.7016 3.96891 26.7016 3.67188C26.7016 3.45679 26.617 3.27243 26.4477 3.11879C26.2891 2.96516 26.0987 2.88834 25.8766 2.88834C25.1256 2.88834 24.7501 3.88185 24.7501 5.86886C24.7501 6.52437 24.8136 7.50764 24.9405 8.81866V9.04911C24.9405 10.7289 24.8718 13.0692 24.7343 16.0702C24.5968 19.0917 24.528 21.4372 24.528 23.1067C24.528 23.3628 24.6179 23.5984 24.7977 23.8134C24.9881 24.0285 25.2049 24.1361 25.4482 24.1361C25.8501 24.1361 26.2203 24.0388 26.5588 23.8442C27.7011 23.8442 28.6689 23.9671 29.4622 24.2129C29.7266 24.1822 29.954 24.09 30.1444 23.9364C30.3453 23.7827 30.4458 23.5984 30.4458 23.3833C30.4458 22.7687 29.8641 22.4615 28.7006 22.4615C28.4045 22.4615 28.1559 22.4666 27.9549 22.4768L27.3521 22.5075C26.6222 22.5075 26.2573 21.7855 26.2573 20.3413C26.2573 19.6346 26.2785 18.7947 26.3208 17.8217C26.3631 16.8487 26.3843 16.019 26.3843 15.3328V14.9487Z" fill="#907910"/>
<path d="M53.1017 23.6905C52.7527 23.6905 52.4988 23.6291 52.3402 23.5062C52.1815 23.3833 52.1022 23.1733 52.1022 22.8763V18.7742C51.8166 18.5796 51.2877 18.4106 50.5156 18.2672C49.7541 18.1136 49.019 18.0163 48.3103 17.9753C48.0988 18.3235 47.919 18.8561 47.7709 19.5731L47.6757 20.0494C47.5065 20.8893 47.3531 21.5704 47.2156 22.0927C47.0781 22.6151 46.9089 23.035 46.7079 23.3525C45.8723 23.3525 45.3964 23.1426 45.28 22.7226C45.481 22.4461 45.7507 21.4628 46.0892 19.7728C46.3747 18.3287 46.7291 16.4082 47.1521 14.0115C47.6387 11.2256 48.0829 8.88523 48.4848 6.9904C48.8868 5.08532 49.3098 3.4824 49.7541 2.18162C50.2406 0.727206 50.7166 0 51.182 0C51.6368 0 51.9858 0.0921811 52.2291 0.276543C52.2291 1.05496 52.4406 3.07782 52.8637 6.34513C53.2868 9.61244 53.4983 11.7633 53.4983 12.7978C53.4983 13.7811 53.6147 15.3686 53.8474 17.5605C54.0695 19.8138 54.1805 21.5038 54.1805 22.6305C54.1805 23.3372 53.8209 23.6905 53.1017 23.6905ZM51.4041 16.9306C51.5945 16.9306 51.8166 16.8999 52.0704 16.8384C52.0387 16.3877 51.9277 15.2457 51.7373 13.4123C51.2401 8.55748 50.9916 5.65889 50.9916 4.7166C50.9916 4.56296 50.9969 4.47078 51.0075 4.44005C50.7959 4.6449 50.4998 5.59232 50.119 7.2823C49.7382 8.97229 49.3839 10.7903 49.056 12.7364C48.7281 14.6722 48.5483 15.9524 48.5166 16.5772C49.4368 16.8128 50.3993 16.9306 51.4041 16.9306Z" fill="#907910"/>
<path d="M63.446 12.8746C63.9219 12.2191 64.2604 11.5124 64.4614 10.7545C64.6623 9.99652 64.7628 9.04911 64.7628 7.91221C64.7628 6.42707 64.4402 5.16726 63.795 4.13278C63.4671 3.60018 63.0176 3.19049 62.4465 2.9037C61.8859 2.60668 61.2354 2.45816 60.495 2.45816C60.0931 2.45816 59.8128 2.58107 59.6541 2.82689C59.5061 3.06246 59.432 3.41582 59.432 3.88697V4.05597L59.5272 4.83951C59.5801 5.2492 59.6065 5.53086 59.6065 5.6845C59.6065 7.03649 59.5854 8.69575 59.5431 10.6623C59.4902 13.1409 59.4637 14.8053 59.4637 15.6554C59.4637 16.4646 59.4109 17.581 59.3051 19.0047C59.1993 20.4283 59.1464 21.5448 59.1464 22.3539C59.1464 22.61 59.1517 22.8097 59.1623 22.9531C59.1835 23.0965 59.2258 23.2552 59.2892 23.4294C59.4056 23.8186 59.6964 24.0132 60.1618 24.0132C60.8388 24.0132 61.4522 23.9056 62.0022 23.6905C62.9965 23.2911 63.7527 22.5639 64.271 21.5089C64.7258 20.5871 64.9532 19.4758 64.9532 18.175C64.9532 16.8743 64.8474 15.8039 64.6359 14.9641C64.4243 14.1139 64.0277 13.4175 63.446 12.8746ZM61.1931 7.29767C61.1931 5.57695 61.32 4.4503 61.5739 3.9177C62.4623 4.02012 62.9066 5.43356 62.9066 8.15802C62.9066 10.6776 62.3354 11.9528 61.1931 11.9835V7.29767ZM61.0979 18.5898C61.0979 16.7667 61.1455 15.1791 61.2407 13.8272C61.5897 13.8989 61.8912 14.0832 62.145 14.3802C62.3883 14.667 62.5787 14.9948 62.7162 15.3635C62.8537 15.722 62.9647 16.1573 63.0493 16.6694C63.1234 17.1098 63.1657 17.4888 63.1763 17.8063C63.1974 18.1136 63.208 18.5028 63.208 18.9739C63.208 19.8138 63.0176 20.5615 62.6368 21.217C62.2561 21.8623 61.7166 22.2617 61.0186 22.4154V21.0019C61.0186 20.9712 61.0133 20.9456 61.0027 20.9251C60.9921 20.9046 60.9868 20.879 60.9868 20.8483C60.9868 20.582 61.008 20.2235 61.0503 19.7728C61.082 19.2812 61.0979 18.8869 61.0979 18.5898Z" fill="#907910"/>
<path d="M78.3278 11.4458C78.3278 10.4421 78.2643 9.51001 78.1374 8.64966C78.0105 7.76882 77.7936 6.94943 77.4869 6.1915C77.1908 5.43356 76.8258 4.79342 76.3922 4.27106C75.9268 3.72821 75.3451 3.30315 74.647 2.99588C73.9489 2.68861 73.1662 2.53498 72.2989 2.53498C72.0027 2.53498 71.733 2.64765 71.4898 2.87298C71.2465 3.08807 71.0455 3.40558 70.8869 3.82551C70.6965 4.3069 70.5431 4.77293 70.4268 5.22359C70.3104 5.66401 70.2205 6.17101 70.1571 6.74458C70.0724 7.4513 70.009 8.02487 69.9667 8.46529C69.935 8.90572 69.9138 9.40759 69.9032 9.97092C69.8926 10.2065 69.8874 10.4882 69.8874 10.8159C69.8662 11.5534 69.8556 12.004 69.8556 12.1679V12.7364C69.8874 12.7364 69.9032 12.7876 69.9032 12.89C69.9032 13.1051 69.8979 13.2946 69.8874 13.4584C69.8768 13.6223 69.8715 13.8323 69.8715 14.0883C69.8715 15.3891 69.9614 16.7565 70.1412 18.1904C70.321 19.737 70.7176 21.1299 71.3311 22.3693C71.6167 22.9736 71.9975 23.4447 72.4734 23.7827C72.9494 24.1207 73.4782 24.2897 74.06 24.2897C76.9475 24.2897 78.3912 21.2733 78.3912 15.2406L78.3595 13.4584L78.3278 11.6763V11.4458ZM73.5364 4.2096C74.0335 4.2096 74.483 4.34787 74.885 4.62442C75.2869 4.89072 75.6042 5.25432 75.8369 5.71523C76.0696 6.16589 76.1965 6.64728 76.2177 7.1594V7.71248C76.2177 8.44993 76.2917 9.66365 76.4398 11.3536C76.5773 12.9207 76.646 14.1498 76.646 15.0409C76.646 15.7988 76.5984 16.7309 76.5033 17.837C76.3869 19.0764 76.1383 20.2235 75.7576 21.2785C75.5672 21.8111 75.3081 22.231 74.9802 22.5383C74.6629 22.8353 74.3138 22.9838 73.933 22.9838C73.6052 22.9838 73.3037 22.779 73.0287 22.3693C72.7643 21.9493 72.5527 21.3758 72.3941 20.6486C72.0556 19.1634 71.8441 17.6322 71.7595 16.0549C71.6749 14.5697 71.6326 13.4482 71.6326 12.6903C71.6326 12.4444 71.659 11.9631 71.7119 11.2461C71.7648 10.5291 71.7912 10.0426 71.7912 9.78656C71.7912 9.49977 71.7859 9.21811 71.7753 8.94156C71.7648 8.66502 71.7595 8.32702 71.7595 7.92757C71.7595 7.40521 71.7806 6.95455 71.8229 6.57558C71.8652 6.18637 71.9446 5.80229 72.0609 5.42332C72.3042 4.61417 72.796 4.2096 73.5364 4.2096Z" fill="#907910"/>
<path d="M87.7995 24.1822C90.5918 24.1822 91.9879 19.527 91.9879 10.2167C91.9879 10.1143 91.9827 10.0221 91.9721 9.94019C91.9615 9.8685 91.9562 9.78144 91.9562 9.67901C91.9562 9.44344 91.9827 9.00302 92.0355 8.35775C92.0778 7.83539 92.099 7.40009 92.099 7.05185C92.099 6.66264 92.136 6.14028 92.2101 5.48477C92.2841 4.82926 92.3211 4.29666 92.3211 3.88697C92.3211 3.64115 92.3105 3.39534 92.2894 3.14952C92.2577 2.94467 92.1572 2.76543 91.9879 2.6118C91.8187 2.44792 91.5966 2.36598 91.3216 2.36598C90.9831 2.36598 90.7504 2.42743 90.6235 2.55034C90.4966 2.66301 90.4331 2.84737 90.4331 3.10343C90.4331 3.19561 90.4384 3.27755 90.449 3.34925V3.62579V5.39259C90.449 16.6694 89.6769 22.3078 88.1326 22.3078C86.7576 22.3078 86.0701 21.5396 86.0701 20.0033C86.0701 19.3068 85.9961 18.1955 85.848 16.6694C85.6894 15.1945 85.61 14.0832 85.61 13.3355V4.77805C85.61 4.33763 85.5095 3.92794 85.3086 3.54897C85.1076 3.17 84.8802 2.98052 84.6264 2.98052C84.3619 2.98052 84.1292 3.20073 83.9283 3.64115L83.9917 5.08532C84.0446 6.39634 84.0711 7.41545 84.0711 8.14266C84.0711 11.1642 84.0975 13.9296 84.1504 16.439C84.1504 17.6988 84.2244 18.8561 84.3725 19.9111C84.4571 20.5154 84.5841 21.0583 84.7533 21.5396C84.9225 22.0108 85.1394 22.4615 85.4038 22.8916C85.6576 23.3013 85.9908 23.6188 86.4033 23.8442C86.8158 24.0695 87.2812 24.1822 87.7995 24.1822Z" fill="#907910"/>
<path d="M100.127 21.9852L100.159 23.1989L100.762 23.6137C101.047 23.6137 101.301 23.5215 101.523 23.3372C101.756 23.1426 101.872 22.9224 101.872 22.6765C101.872 20.6178 101.692 17.6373 101.333 13.735C100.973 9.83265 100.793 6.85725 100.793 4.80878L100.825 4.62442L100.857 4.48615L101.507 4.59369C101.846 4.66539 102.126 4.70123 102.348 4.70123C102.634 4.70123 102.882 4.6193 103.094 4.45542C103.316 4.29154 103.427 4.08669 103.427 3.84088C103.427 3.339 103.088 3.08807 102.412 3.08807H102.142C102.068 3.09831 101.983 3.10343 101.888 3.10343C101.359 3.10343 100.624 3.05222 99.6827 2.94979C98.699 2.85761 97.9639 2.81152 97.4774 2.81152C97.2341 2.81152 97.0014 2.8781 96.7793 3.01125C96.5572 3.1444 96.4461 3.30315 96.4461 3.48752C96.4461 3.70261 96.5572 3.88185 96.7793 4.02524C97.1495 4.26081 97.9586 4.39396 99.2067 4.42469C99.2385 5.59232 99.3812 8.37311 99.6351 12.7671C99.8889 17.1508 100.058 19.4656 100.143 19.7114L100.095 20.7868L100.127 21.9852Z" fill="#907910"/>
<path d="M8.74187 55.1396C8.9111 55.5801 9.27072 55.8003 9.82072 55.8003C10.0534 55.8003 10.2438 55.7183 10.3919 55.5545C10.54 55.3906 10.614 55.1857 10.614 54.9399C10.614 54.3561 10.5082 53.424 10.2967 52.1438C10.0746 50.8942 9.96351 49.957 9.96351 49.3322C9.96351 48.8508 9.84187 48.4514 9.5986 48.1339C9.35533 47.8164 9.01687 47.6576 8.58321 47.6576C8.14956 47.6576 7.61013 47.7242 6.96494 47.8573C6.6159 47.929 6.33032 48.0417 6.1082 48.1953C5.88609 48.3387 5.77503 48.5077 5.77503 48.7023C5.77503 49.2964 6.14522 49.5934 6.88561 49.5934C7.09715 49.5934 7.351 49.5729 7.64715 49.532L8.15485 49.4705C8.3135 49.7368 8.43514 50.2284 8.51975 50.9454C8.61494 51.6624 8.66783 52.3691 8.67841 53.0656C8.04379 53.9464 7.24523 54.3868 6.28272 54.3868C5.7856 54.3868 5.33608 54.2793 4.93416 54.0642C4.53223 53.8594 4.19377 53.593 3.91877 53.2653C3.64377 52.9375 3.41107 52.5176 3.22069 52.0055C3.0303 51.5139 2.87694 51.0273 2.76059 50.546C2.65482 50.0543 2.5702 49.491 2.50674 48.856C2.44328 48.2824 2.40097 47.7703 2.37982 47.3196C2.36924 46.869 2.36395 46.3261 2.36395 45.6911C2.36395 45.2507 2.36924 44.8871 2.37982 44.6003V43.7399C2.37982 42.7054 2.40097 41.7119 2.44328 40.7594C2.46443 40.1141 2.50145 39.5252 2.55434 38.9926C2.6178 38.46 2.71299 37.7738 2.83992 36.9339C2.92453 36.2784 3.05146 35.6894 3.22069 35.1671C3.38992 34.6447 3.59617 34.1275 3.83944 33.6154C4.06156 33.1545 4.33656 32.8062 4.66445 32.5706C4.99233 32.3248 5.35724 32.2019 5.75916 32.2019C5.84378 32.2019 6.00243 32.2275 6.23513 32.2787C6.46782 32.3299 6.62119 32.3556 6.69522 32.3556C6.92792 32.3556 7.12888 32.289 7.29811 32.1558C7.46734 32.0124 7.55196 31.8332 7.55196 31.6181C7.55196 31.0241 7.10244 30.727 6.20339 30.727C5.64282 30.727 5.12983 30.8038 4.66445 30.9575C4.18848 31.1214 3.77598 31.3416 3.42694 31.6181C3.0779 31.8844 2.76059 32.2224 2.47501 32.6321C2.18943 33.0316 1.95145 33.4515 1.76107 33.8919C1.58126 34.3221 1.41731 34.824 1.26924 35.3975C0.994236 36.4935 0.819715 37.5894 0.745677 38.6853C0.671638 39.8427 0.634618 40.9233 0.634618 41.927C0.634618 42.4084 0.639907 42.8232 0.650484 43.1715V44.2469C0.650484 44.9229 0.655772 45.3941 0.666349 45.6604C0.666349 46.0803 0.687503 46.6231 0.729811 47.2889C0.782696 47.9444 0.840869 48.5128 0.904331 48.9942C0.97837 49.5678 1.07885 50.167 1.20578 50.7918C1.34328 51.4063 1.50193 51.9287 1.68174 52.3588C1.89328 52.8812 2.14713 53.378 2.44328 53.8491C2.73944 54.31 3.05675 54.6787 3.39521 54.9553C3.77598 55.283 4.21492 55.5391 4.71204 55.7235C5.21974 55.9078 5.76445 56 6.34618 56C6.60003 56 6.85388 55.959 7.10773 55.8771C7.36157 55.7952 7.66831 55.6569 8.02792 55.4623C8.40869 55.2574 8.64668 55.1396 8.74187 55.1089V55.1396Z" fill="#907910"/>
<path d="M23.3064 42.9103C23.3064 41.9065 23.2429 40.9745 23.116 40.1141C22.9891 39.2333 22.7722 38.4139 22.4655 37.656C22.1693 36.898 21.8044 36.2579 21.3708 35.7355C20.9054 35.1927 20.3237 34.7676 19.6256 34.4604C18.9275 34.1531 18.1448 33.9995 17.2775 33.9995C16.9813 33.9995 16.7116 34.1121 16.4683 34.3374C16.2251 34.5525 16.0241 34.87 15.8655 35.29C15.6751 35.7714 15.5217 36.2374 15.4054 36.6881C15.289 37.1285 15.1991 37.6355 15.1356 38.2091C15.051 38.9158 14.9876 39.4893 14.9453 39.9298C14.9135 40.3702 14.8924 40.8721 14.8818 41.4354C14.8712 41.671 14.8659 41.9526 14.8659 42.2804C14.8448 43.0178 14.8342 43.4685 14.8342 43.6324V44.2008C14.8659 44.2008 14.8818 44.252 14.8818 44.3545C14.8818 44.5695 14.8765 44.759 14.8659 44.9229C14.8554 45.0868 14.8501 45.2968 14.8501 45.5528C14.8501 46.8536 14.94 48.2209 15.1198 49.6549C15.2996 51.2015 15.6962 52.5944 16.3097 53.8337C16.5953 54.438 16.976 54.9092 17.452 55.2472C17.928 55.5852 18.4568 55.7542 19.0386 55.7542C21.9261 55.7542 23.3698 52.7378 23.3698 46.7051L23.3381 44.9229L23.3064 43.1407V42.9103ZM18.515 35.6741C19.0121 35.6741 19.4616 35.8123 19.8636 36.0889C20.2655 36.3552 20.5828 36.7188 20.8155 37.1797C21.0482 37.6304 21.1751 38.1118 21.1963 38.6239V39.177C21.1963 39.9144 21.2703 41.1281 21.4184 42.8181C21.5559 44.3852 21.6246 45.6143 21.6246 46.5053C21.6246 47.2633 21.577 48.1953 21.4818 49.3015C21.3655 50.5408 21.1169 51.688 20.7362 52.7429C20.5458 53.2755 20.2866 53.6955 19.9587 54.0027C19.6414 54.2998 19.2924 54.4483 18.9116 54.4483C18.5837 54.4483 18.2823 54.2434 18.0073 53.8337C17.7429 53.4138 17.5313 52.8402 17.3727 52.113C17.0342 50.6279 16.8227 49.0967 16.7381 47.5193C16.6534 46.0342 16.6111 44.9127 16.6111 44.1547C16.6111 43.9089 16.6376 43.4275 16.6905 42.7106C16.7433 41.9936 16.7698 41.5071 16.7698 41.251C16.7698 40.9642 16.7645 40.6826 16.7539 40.406C16.7433 40.1295 16.7381 39.7915 16.7381 39.392C16.7381 38.8697 16.7592 38.419 16.8015 38.0401C16.8438 37.6508 16.9232 37.2668 17.0395 36.8878C17.2828 36.0786 17.7746 35.6741 18.515 35.6741Z" fill="#907910"/>
<path d="M30.8901 46.4132C30.8901 45.8191 30.9535 45.3787 31.0804 45.0919C31.0804 44.2418 31.0646 42.982 31.0328 41.3125C31.0011 39.6327 30.9852 38.3729 30.9852 37.5331C30.9852 37.236 31.0223 36.8366 31.0963 36.3347C31.1703 35.8328 31.2074 35.4334 31.2074 35.1364C31.2074 34.9213 31.1227 34.7369 30.9535 34.5833C30.7949 34.4296 30.6045 34.3528 30.3824 34.3528C29.6314 34.3528 29.2559 35.3463 29.2559 37.3333C29.2559 37.9888 29.3194 38.9721 29.4463 40.2831V40.5136C29.4463 42.1933 29.3775 44.5337 29.24 47.5347C29.1025 50.5562 29.0338 52.9017 29.0338 54.5712C29.0338 54.8273 29.1237 55.0628 29.3035 55.2779C29.4939 55.493 29.7107 55.6005 29.954 55.6005C30.3559 55.6005 30.7261 55.5032 31.0646 55.3086C32.2069 55.3086 33.1747 55.4315 33.9679 55.6774C34.2324 55.6466 34.4598 55.5545 34.6502 55.4008C34.8511 55.2472 34.9516 55.0628 34.9516 54.8477C34.9516 54.2332 34.3699 53.9259 33.2064 53.9259C32.9103 53.9259 32.6617 53.931 32.4607 53.9413L31.8578 53.972C31.128 53.972 30.7631 53.2499 30.7631 51.8058C30.7631 51.099 30.7843 50.2592 30.8266 49.2861C30.8689 48.3131 30.8901 47.4835 30.8901 46.7973V46.4132Z" fill="#907910"/>
<path d="M39.1877 35.4129C39.1877 35.9045 39.2511 36.8417 39.3781 38.2244C39.505 39.6174 39.5685 40.6519 39.5685 41.3278C39.5685 42.4238 39.5526 44.0728 39.5209 46.2749C39.4891 48.4668 39.4733 50.1209 39.4733 51.2373C39.4733 53.9823 39.7483 55.3547 40.2983 55.3547H42.6464C43.1964 55.0782 43.6988 54.7607 44.1536 54.4022C44.5978 54.0335 44.9627 53.6699 45.2483 53.3114C45.5444 52.9427 45.7983 52.5278 46.0098 52.0669C46.2214 51.5958 46.3853 51.1502 46.5017 50.7303C46.618 50.3001 46.7079 49.8034 46.7714 49.2401C46.8348 48.7075 46.8719 48.2261 46.8824 47.7959C46.9036 47.3555 46.9142 46.7819 46.9142 46.0752V44.3391L46.9459 43.5095L46.9776 42.7567C46.9776 41.9782 46.8771 41.2049 46.6762 40.4368C46.4752 39.6583 46.1791 38.9107 45.7877 38.1937C45.3964 37.4665 44.931 36.8161 44.3916 36.2425C43.8521 35.669 43.2281 35.2183 42.5194 34.8905C41.8108 34.5525 41.081 34.3835 40.33 34.3835C40.0444 34.3835 39.78 34.4911 39.5367 34.7062C39.304 34.911 39.1877 35.1466 39.1877 35.4129ZM41.742 53.0041C41.742 51.4575 41.6627 49.1428 41.504 46.0598C41.3348 43.069 41.2502 40.7543 41.2502 39.1155C41.2502 37.7635 41.3295 36.6727 41.4882 35.8431C44.0055 36.1299 45.2642 39.4381 45.2642 45.7679C45.2642 46.2493 45.2589 46.6129 45.2483 46.8587C45.2271 47.2582 45.1848 47.7293 45.1214 48.2722C45.0685 48.815 44.9944 49.3118 44.8993 49.7624C44.7935 50.2745 44.6507 50.7815 44.4709 51.2834C44.2911 51.775 44.0901 52.1898 43.868 52.5278C43.6142 52.8966 43.3021 53.1936 42.9319 53.4189C42.5617 53.6443 42.1651 53.7569 41.742 53.7569V53.0041Z" fill="#907910"/>
<path d="M57.9724 35.797C57.9724 35.5409 57.7397 35.3105 57.2743 35.1056C56.8195 34.8905 56.2748 34.7215 55.6402 34.5986C55.0161 34.4655 54.4979 34.3989 54.0854 34.3989C53.1757 34.3989 52.7209 35.1415 52.7209 36.6266C52.7209 36.9236 52.7527 37.3641 52.8161 37.9479C52.869 38.6136 52.8954 39.0592 52.8954 39.2845C52.8954 40.4419 52.8584 41.9731 52.7844 43.8782C52.7103 45.7833 52.6733 47.3145 52.6733 48.4719C52.6733 48.8201 52.6998 49.491 52.7527 50.4845C52.8055 51.4882 52.832 52.1591 52.832 52.4971L52.8637 53.1577C52.8743 53.3524 52.8796 53.5623 52.8796 53.7877V54.6173C52.8902 54.8836 53.0065 55.1089 53.2286 55.2933C53.4613 55.4879 53.7257 55.5852 54.0219 55.5852H56.7666C57.158 55.5852 57.4859 55.5084 57.7503 55.3547C58.0253 55.2011 58.1628 54.9758 58.1628 54.6787C58.1628 54.1666 57.7503 53.9106 56.9253 53.9106L55.5926 53.9413L54.5296 53.9874C54.4873 53.9874 54.4661 53.3984 54.4661 52.2206C54.4661 51.7289 54.4926 50.7764 54.5455 49.363C54.5878 48.2261 54.6089 47.2786 54.6089 46.5207C54.6089 45.7321 54.5772 44.9383 54.5137 44.1394H55.3387C55.6349 44.1803 55.9416 44.2008 56.2589 44.2008C56.5551 44.2008 56.7983 44.1189 56.9887 43.955C57.1897 43.7809 57.2902 43.5812 57.2902 43.3558C57.2902 42.7823 56.7666 42.4955 55.7195 42.4955C55.4762 42.4955 55.2647 42.5006 55.0849 42.5108L54.5613 42.5416L54.4661 42.0499C54.4661 41.6505 54.4926 40.8977 54.5455 39.7915C54.5878 38.9004 54.6089 38.1476 54.6089 37.5331C54.6089 37.0722 54.593 36.6215 54.5613 36.1811C55.2065 36.263 56.0262 36.4627 57.0205 36.7802C57.2955 36.6778 57.5229 36.5447 57.7027 36.3808C57.8825 36.2067 57.9724 36.0121 57.9724 35.797Z" fill="#907910"/>
<path d="M72.2037 52.2667C72.0451 51.8672 71.6696 50.6535 71.0773 48.6255L70.6013 47.0123C69.935 44.7283 69.3426 42.8027 68.8244 41.2357C68.3167 39.6686 67.7667 38.2244 67.1744 36.9032C66.4128 35.2132 65.7782 34.3682 65.2705 34.3682C65.1965 34.3682 65.1171 34.3938 65.0325 34.445V34.2453C64.2393 34.8086 63.8426 35.5819 63.8426 36.5652C63.8426 37.2104 63.8109 38.1886 63.7474 39.4996C63.684 40.8004 63.6522 41.7785 63.6522 42.434L63.684 47.8266L63.7157 53.2192C63.7157 54.4995 64.07 55.1396 64.7787 55.1396C65.0431 55.1396 65.2705 55.0423 65.4609 54.8477C65.6618 54.6531 65.7623 54.4227 65.7623 54.1564C65.7623 54.0232 65.6936 53.8491 65.5561 53.634C65.4715 53.4906 65.4292 53.4189 65.4292 53.4189V37.5792C65.9263 38.6853 66.6402 40.4572 67.571 42.8949C68.5123 45.3326 69.3426 47.6064 70.0619 49.7163C70.7811 51.8262 71.1407 53.1219 71.1407 53.6033V53.6801L71.1249 53.7416C71.1777 53.8542 71.2412 54.0591 71.3152 54.3561C71.3893 54.6839 71.4898 54.9194 71.6167 55.0628C71.7436 55.196 71.9446 55.2626 72.2196 55.2626C72.3782 55.2626 72.759 55.1755 73.3619 55.0014C73.5734 54.6736 73.7638 53.5162 73.933 51.5292C74.1129 49.532 74.2504 47.2633 74.3456 44.7232C74.4513 42.1831 74.5148 39.9861 74.5359 38.1322V35.7509C74.5359 35.4027 74.4566 35.1107 74.298 34.8752C74.1393 34.6396 73.9119 34.5218 73.6157 34.5218C73.0763 34.5218 72.8066 34.8342 72.8066 35.459L72.8383 35.8892C72.8489 36.0223 72.8542 36.1606 72.8542 36.304C72.8542 42.5006 72.6374 47.8215 72.2037 52.2667Z" fill="#907910"/>
<path d="M92.8605 41.9731C93.0827 42.8232 93.4793 44.1291 94.0504 45.8908C94.6745 47.8266 95.1505 49.4808 95.4783 50.8532C95.8168 52.2155 96.0178 53.4445 96.0812 54.5405V54.648C96.462 55.2113 96.8533 55.493 97.2553 55.493C97.6466 55.493 97.8793 55.3189 97.9534 54.9706C97.9851 54.817 98.0062 54.6736 98.0168 54.5405C98.038 54.4073 98.0485 54.2537 98.0485 54.0796V54.0027L97.0966 51.2219C96.6101 49.829 96.224 48.6818 95.9384 47.7805C95.6211 46.8075 95.3355 45.7423 95.0817 44.5849C94.8384 43.4275 94.7115 42.4699 94.7009 41.7119L95.0341 40.8977L95.4149 39.9912C95.7216 39.1923 95.912 38.6085 95.986 38.2398C96.1341 37.5228 96.2082 36.9339 96.2082 36.473C96.2082 35.9813 96.1606 35.5 96.0654 35.0288C95.9596 34.5372 95.7956 34.066 95.5735 33.6154C95.3514 33.1545 95.087 32.7499 94.7803 32.4016C94.4524 32.0432 94.0557 31.7615 93.5903 31.5567C93.1355 31.3518 92.6437 31.2494 92.1149 31.2494C91.7658 31.2494 91.5331 31.3006 91.4168 31.403C91.311 31.4952 91.2581 31.6693 91.2581 31.9254V35.797C91.2581 38.2961 91.237 41.3688 91.1947 45.0151C91.1524 48.6614 91.1312 51.7392 91.1312 54.2486V54.4944C91.1312 54.7402 91.2052 54.9502 91.3533 55.1243C91.512 55.2882 91.7129 55.3701 91.9562 55.3701C92.3052 55.3701 92.5432 55.2882 92.6702 55.1243C92.7971 54.9604 92.8605 54.7095 92.8605 54.3715V41.9731ZM93.8759 39.346C93.5269 39.8069 93.162 40.2114 92.7812 40.5597C92.7601 40.1295 92.7495 39.6481 92.7495 39.1155C92.7495 38.3576 92.7812 37.2668 92.8447 35.8431C92.8976 34.2555 92.924 33.2057 92.924 32.6936C93.1461 32.7345 93.3524 32.883 93.5428 33.1391C93.7437 33.3952 93.9077 33.7127 94.0346 34.0916C94.2884 34.8803 94.4154 35.587 94.4154 36.2118C94.4154 36.304 94.4048 36.4422 94.3836 36.6266L93.8759 39.346Z" fill="#907910"/>
<path d="M108.107 35.797C108.107 35.5409 107.875 35.3105 107.409 35.1056C106.954 34.8905 106.41 34.7215 105.775 34.5986C105.151 34.4655 104.633 34.3989 104.22 34.3989C103.311 34.3989 102.856 35.1415 102.856 36.6266C102.856 36.9236 102.888 37.3641 102.951 37.9479C103.004 38.6136 103.03 39.0592 103.03 39.2845C103.03 40.4419 102.993 41.9731 102.919 43.8782C102.845 45.7833 102.808 47.3145 102.808 48.4719C102.808 48.8201 102.835 49.491 102.888 50.4845C102.94 51.4882 102.967 52.1591 102.967 52.4971L102.999 53.1577C103.009 53.3524 103.014 53.5623 103.014 53.7877V54.6173C103.025 54.8836 103.141 55.1089 103.363 55.2933C103.596 55.4879 103.861 55.5852 104.157 55.5852H106.901C107.293 55.5852 107.621 55.5084 107.885 55.3547C108.16 55.2011 108.298 54.9758 108.298 54.6787C108.298 54.1666 107.885 53.9106 107.06 53.9106L105.727 53.9413L104.664 53.9874C104.622 53.9874 104.601 53.3984 104.601 52.2206C104.601 51.7289 104.627 50.7764 104.68 49.363C104.723 48.2261 104.744 47.2786 104.744 46.5207C104.744 45.7321 104.712 44.9383 104.649 44.1394H105.474C105.77 44.1803 106.076 44.2008 106.394 44.2008C106.69 44.2008 106.933 44.1189 107.124 43.955C107.325 43.7809 107.425 43.5812 107.425 43.3558C107.425 42.7823 106.901 42.4955 105.854 42.4955C105.611 42.4955 105.4 42.5006 105.22 42.5108L104.696 42.5416L104.601 42.0499C104.601 41.6505 104.627 40.8977 104.68 39.7915C104.723 38.9004 104.744 38.1476 104.744 37.5331C104.744 37.0722 104.728 36.6215 104.696 36.1811C105.341 36.263 106.161 36.4627 107.155 36.7802C107.43 36.6778 107.658 36.5447 107.838 36.3808C108.017 36.2067 108.107 36.0121 108.107 35.797Z" fill="#907910"/>
<path d="M116.31 53.4497L116.341 54.6634L116.944 55.0782C117.23 55.0782 117.484 54.986 117.706 54.8016C117.939 54.607 118.055 54.3868 118.055 54.141C118.055 52.0823 117.875 49.1018 117.515 45.1995C117.156 41.2971 116.976 38.3217 116.976 36.2733L117.008 36.0889L117.039 35.9506L117.69 36.0582C118.028 36.1299 118.309 36.1657 118.531 36.1657C118.816 36.1657 119.065 36.0838 119.277 35.9199C119.499 35.756 119.61 35.5512 119.61 35.3054C119.61 34.8035 119.271 34.5525 118.594 34.5525H118.325C118.251 34.5628 118.166 34.5679 118.071 34.5679C117.542 34.5679 116.807 34.5167 115.865 34.4143C114.882 34.3221 114.147 34.276 113.66 34.276C113.417 34.276 113.184 34.3426 112.962 34.4757C112.74 34.6089 112.629 34.7676 112.629 34.952C112.629 35.1671 112.74 35.3463 112.962 35.4897C113.332 35.7253 114.141 35.8584 115.389 35.8892C115.421 37.0568 115.564 39.8376 115.818 44.2315C116.072 48.6153 116.241 50.93 116.326 51.1759L116.278 52.2513L116.31 53.4497Z" fill="#907910"/>
<path d="M130.366 55.7081C130.578 55.7081 130.753 55.6313 130.89 55.4776C131.028 55.324 131.096 55.1345 131.096 54.9092C131.096 54.7658 131.07 54.6224 131.017 54.479C130.964 54.3254 130.879 54.141 130.763 53.9259L130.557 53.5265C130.155 52.6866 129.811 51.7597 129.526 50.7457C129.24 49.7214 128.949 48.4258 128.653 46.8587L128.034 43.8628L128.542 42.941L129.161 41.8041C129.288 41.5173 129.409 41.1742 129.526 40.7748C129.642 40.3753 129.7 40.0271 129.7 39.73V37.5177C129.7 36.8212 129.526 36.2272 129.177 35.7355C128.828 35.2337 128.346 34.8547 127.733 34.5986C127.13 34.3323 126.448 34.1992 125.686 34.1992C124.967 34.1992 124.607 34.6959 124.607 35.6894C124.607 37.5843 124.703 40.4521 124.893 44.293C125.073 48.2465 125.163 51.1093 125.163 52.8812L125.131 54.986L125.559 55.4469H126.464L126.828 54.6019C126.416 53.0041 126.21 50.8174 126.21 48.0417C126.21 47.3862 126.215 46.8075 126.226 46.3056C126.236 45.8037 126.241 45.2455 126.241 44.631H126.638C126.828 45.0817 127.225 46.7973 127.828 49.7778L128.05 50.8379C128.315 52.0977 128.653 53.2141 129.066 54.1871C129.478 55.2011 129.912 55.7081 130.366 55.7081ZM128.082 38.3012C128.082 38.8338 128.008 39.4484 127.86 40.1449C127.712 40.8311 127.505 41.4508 127.241 42.0038C126.987 42.5569 126.702 42.9154 126.384 43.0793C126.384 42.1575 126.363 40.9745 126.321 39.5303C126.278 38.0964 126.257 36.8571 126.257 35.8123C126.257 35.7509 126.278 35.6638 126.321 35.5512L126.368 35.3668C126.749 35.377 127.061 35.4743 127.304 35.6587C127.558 35.8328 127.738 36.0838 127.844 36.4115C127.939 36.7393 128.003 37.0414 128.034 37.318C128.066 37.5843 128.082 37.912 128.082 38.3012Z" fill="#907910"/>
<path d="M139.632 51.3909C139.632 50.8276 139.605 49.7163 139.553 48.0571C139.5 46.3978 139.473 45.2814 139.473 44.7078C139.473 44.0318 139.505 43.0281 139.568 41.6966C139.621 40.2114 139.648 39.2128 139.648 38.7007C139.648 37.6765 139.605 36.7034 139.521 35.7816H141.187C141.43 35.7816 141.647 35.6997 141.837 35.5358C142.028 35.3719 142.123 35.1927 142.123 34.9981C142.123 34.824 142.017 34.6652 141.805 34.5218C141.605 34.3989 141.271 34.3374 140.806 34.3374H136.935C135.867 34.3374 135.332 34.5781 135.332 35.0595C135.332 35.377 135.417 35.5973 135.586 35.7202C135.755 35.8431 136.009 35.9045 136.348 35.9045C136.485 35.9045 136.612 35.8994 136.729 35.8892C136.845 35.8789 136.967 35.8738 137.093 35.8738H137.712C137.818 36.8878 137.871 38.0145 137.871 39.2538C137.871 39.8683 137.844 41.0359 137.792 42.7567C137.728 44.3032 137.696 45.4709 137.696 46.2595C137.696 47.0892 137.733 48.2005 137.807 49.5934C137.881 50.9864 137.918 52.1028 137.918 52.9427L137.887 53.1577L137.855 53.3575H136.935C136.808 53.3677 136.681 53.465 136.554 53.6494C136.427 53.8235 136.364 54.0027 136.364 54.1871C136.364 54.6583 136.75 54.8938 137.522 54.8938L137.918 54.8631C138.162 54.9041 138.791 54.9246 139.806 54.9246H141.234C141.52 54.9246 141.768 54.8324 141.98 54.648C142.202 54.4534 142.313 54.223 142.313 53.9567C142.313 53.4343 141.869 53.1731 140.98 53.1731C140.78 53.1731 140.61 53.1782 140.473 53.1885C140.335 53.1987 140.192 53.2038 140.044 53.2038H139.616C139.616 53.0502 139.621 52.9068 139.632 52.7737V52.3281V51.3909Z" fill="#907910"/>
<path d="M153.102 35.797C153.102 35.5409 152.869 35.3105 152.404 35.1056C151.949 34.8905 151.404 34.7215 150.769 34.5986C150.145 34.4655 149.627 34.3989 149.215 34.3989C148.305 34.3989 147.85 35.1415 147.85 36.6266C147.85 36.9236 147.882 37.3641 147.945 37.9479C147.998 38.6136 148.025 39.0592 148.025 39.2845C148.025 40.4419 147.988 41.9731 147.914 43.8782C147.84 45.7833 147.803 47.3145 147.803 48.4719C147.803 48.8201 147.829 49.491 147.882 50.4845C147.935 51.4882 147.961 52.1591 147.961 52.4971L147.993 53.1577C148.004 53.3524 148.009 53.5623 148.009 53.7877V54.6173C148.019 54.8836 148.136 55.1089 148.358 55.2933C148.591 55.4879 148.855 55.5852 149.151 55.5852H151.896C152.287 55.5852 152.615 55.5084 152.88 55.3547C153.155 55.2011 153.292 54.9758 153.292 54.6787C153.292 54.1666 152.88 53.9106 152.055 53.9106L150.722 53.9413L149.659 53.9874C149.617 53.9874 149.595 53.3984 149.595 52.2206C149.595 51.7289 149.622 50.7764 149.675 49.363C149.717 48.2261 149.738 47.2786 149.738 46.5207C149.738 45.7321 149.706 44.9383 149.643 44.1394H150.468C150.764 44.1803 151.071 44.2008 151.388 44.2008C151.684 44.2008 151.928 44.1189 152.118 43.955C152.319 43.7809 152.419 43.5812 152.419 43.3558C152.419 42.7823 151.896 42.4955 150.849 42.4955C150.606 42.4955 150.394 42.5006 150.214 42.5108L149.691 42.5416L149.595 42.0499C149.595 41.6505 149.622 40.8977 149.675 39.7915C149.717 38.9004 149.738 38.1476 149.738 37.5331C149.738 37.0722 149.722 36.6215 149.691 36.1811C150.336 36.263 151.156 36.4627 152.15 36.7802C152.425 36.6778 152.652 36.5447 152.832 36.3808C153.012 36.2067 153.102 36.0121 153.102 35.797Z" fill="#907910"/>
<path d="M163.018 51.3756C162.975 51.099 162.901 50.5357 162.795 49.6856C162.637 48.5282 162.505 47.5962 162.399 46.8894C161.965 43.9192 161.59 41.6761 161.272 40.1602C160.997 38.9107 160.738 37.8608 160.495 37.0107C160.252 36.1503 159.993 35.4743 159.718 34.9827C159.421 34.4501 159.12 34.1838 158.813 34.1838C158.612 34.1838 158.427 34.2555 158.258 34.3989C158.099 34.5423 158.02 34.7113 158.02 34.9059C158.02 35.2644 158.216 36.0121 158.607 37.149C158.734 37.5177 158.834 37.8403 158.908 38.1169C159.903 41.8553 160.632 45.0151 161.098 47.5962C161.563 50.167 161.796 52.6559 161.796 55.0628L162.399 55.5391C162.917 55.5391 163.367 55.196 163.747 54.5097C164.139 53.8133 164.445 52.8607 164.668 51.6521C164.869 50.5767 165.033 49.5012 165.159 48.4258C165.286 47.3503 165.403 46.152 165.508 44.8307C165.604 43.6733 165.699 42.8386 165.794 42.3265C165.889 41.8041 166.085 41.0206 166.381 39.9759C166.741 38.7365 167.01 37.6867 167.19 36.8263C167.381 35.9557 167.476 35.1517 167.476 34.4143C167.476 34.2299 167.396 34.0711 167.238 33.938C167.09 33.7946 166.921 33.7229 166.73 33.7229H166C165.831 34.6857 165.424 37.2258 164.779 41.3432C164.091 45.6757 163.504 49.0198 163.018 51.3756Z" fill="#907910"/>
<path d="M177.598 35.797C177.598 35.5409 177.365 35.3105 176.9 35.1056C176.445 34.8905 175.9 34.7215 175.266 34.5986C174.642 34.4655 174.123 34.3989 173.711 34.3989C172.801 34.3989 172.346 35.1415 172.346 36.6266C172.346 36.9236 172.378 37.3641 172.442 37.9479C172.495 38.6136 172.521 39.0592 172.521 39.2845C172.521 40.4419 172.484 41.9731 172.41 43.8782C172.336 45.7833 172.299 47.3145 172.299 48.4719C172.299 48.8201 172.325 49.491 172.378 50.4845C172.431 51.4882 172.458 52.1591 172.458 52.4971L172.489 53.1577C172.5 53.3524 172.505 53.5623 172.505 53.7877V54.6173C172.516 54.8836 172.632 55.1089 172.854 55.2933C173.087 55.4879 173.351 55.5852 173.647 55.5852H176.392C176.784 55.5852 177.111 55.5084 177.376 55.3547C177.651 55.2011 177.788 54.9758 177.788 54.6787C177.788 54.1666 177.376 53.9106 176.551 53.9106L175.218 53.9413L174.155 53.9874C174.113 53.9874 174.092 53.3984 174.092 52.2206C174.092 51.7289 174.118 50.7764 174.171 49.363C174.213 48.2261 174.234 47.2786 174.234 46.5207C174.234 45.7321 174.203 44.9383 174.139 44.1394H174.964C175.26 44.1803 175.567 44.2008 175.884 44.2008C176.181 44.2008 176.424 44.1189 176.614 43.955C176.815 43.7809 176.916 43.5812 176.916 43.3558C176.916 42.7823 176.392 42.4955 175.345 42.4955C175.102 42.4955 174.89 42.5006 174.71 42.5108L174.187 42.5416L174.092 42.0499C174.092 41.6505 174.118 40.8977 174.171 39.7915C174.213 38.9004 174.234 38.1476 174.234 37.5331C174.234 37.0722 174.219 36.6215 174.187 36.1811C174.832 36.263 175.652 36.4627 176.646 36.7802C176.921 36.6778 177.148 36.5447 177.328 36.3808C177.508 36.2067 177.598 36.0121 177.598 35.797Z" fill="#907910"/>
<path d="M189.037 55.7081C189.249 55.7081 189.423 55.6313 189.561 55.4776C189.698 55.324 189.767 55.1345 189.767 54.9092C189.767 54.7658 189.74 54.6224 189.687 54.479C189.635 54.3254 189.55 54.141 189.434 53.9259L189.227 53.5265C188.825 52.6866 188.482 51.7597 188.196 50.7457C187.911 49.7214 187.62 48.4258 187.323 46.8587L186.705 43.8628L187.212 42.941L187.831 41.8041C187.958 41.5173 188.08 41.1742 188.196 40.7748C188.312 40.3753 188.371 40.0271 188.371 39.73V37.5177C188.371 36.8212 188.196 36.2272 187.847 35.7355C187.498 35.2337 187.017 34.8547 186.403 34.5986C185.8 34.3323 185.118 34.1992 184.357 34.1992C183.637 34.1992 183.278 34.6959 183.278 35.6894C183.278 37.5843 183.373 40.4521 183.563 44.293C183.743 48.2465 183.833 51.1093 183.833 52.8812L183.801 54.986L184.23 55.4469H185.134L185.499 54.6019C185.086 53.0041 184.88 50.8174 184.88 48.0417C184.88 47.3862 184.885 46.8075 184.896 46.3056C184.907 45.8037 184.912 45.2455 184.912 44.631H185.309C185.499 45.0817 185.896 46.7973 186.498 49.7778L186.721 50.8379C186.985 52.0977 187.323 53.2141 187.736 54.1871C188.148 55.2011 188.582 55.7081 189.037 55.7081ZM186.752 38.3012C186.752 38.8338 186.678 39.4484 186.53 40.1449C186.382 40.8311 186.176 41.4508 185.911 42.0038C185.658 42.5569 185.372 42.9154 185.055 43.0793C185.055 42.1575 185.034 40.9745 184.991 39.5303C184.949 38.0964 184.928 36.8571 184.928 35.8123C184.928 35.7509 184.949 35.6638 184.991 35.5512L185.039 35.3668C185.42 35.377 185.732 35.4743 185.975 35.6587C186.229 35.8328 186.409 36.0838 186.514 36.4115C186.61 36.7393 186.673 37.0414 186.705 37.318C186.736 37.5843 186.752 37.912 186.752 38.3012Z" fill="#907910"/>
<path d="M196.113 38.6546C196.113 38.1322 196.224 37.5279 196.446 36.8417C196.562 36.4832 196.721 36.1913 196.922 35.966C197.123 35.7407 197.345 35.6229 197.588 35.6126C197.811 35.7355 198.038 35.797 198.271 35.797C198.482 35.797 198.667 35.7458 198.826 35.6433C198.985 35.5307 199.064 35.3822 199.064 35.1978C199.064 34.8496 198.895 34.5577 198.556 34.3221C198.228 34.0763 197.863 33.9534 197.462 33.9534C196.964 33.9534 196.515 34.107 196.113 34.4143C195.722 34.7113 195.415 35.1107 195.193 35.6126C194.749 36.5754 194.526 37.5331 194.526 38.4856C194.526 39.3357 194.659 40.1602 194.923 40.9591C195.124 41.5941 195.367 42.1882 195.653 42.7413C195.938 43.2841 196.303 43.9243 196.748 44.6617L197.049 45.1687C197.462 45.8754 197.789 46.6078 198.033 47.3657C198.287 48.1134 198.413 48.8355 198.413 49.532C198.413 50.3513 198.271 51.2578 197.985 52.2513C197.826 52.7941 197.594 53.2346 197.287 53.5726C196.98 53.9106 196.626 54.0796 196.224 54.0796C196.023 54.0796 195.774 54.0437 195.478 53.972C195.394 53.9515 195.193 53.9106 194.875 53.8491L194.511 54.3868C194.553 54.7146 194.706 54.9809 194.971 55.1857C195.235 55.4008 195.568 55.5391 195.97 55.6005V55.5237C196.647 55.5135 197.261 55.3342 197.811 54.986C198.361 54.6275 198.789 54.1513 199.096 53.5572C199.699 52.3998 200 51.1861 200 49.916C200 49.1171 199.905 48.3285 199.714 47.5501C199.535 46.7717 199.297 46.0957 199 45.5221C198.546 44.6617 197.922 43.5504 197.128 42.1882C196.822 41.6863 196.573 41.123 196.383 40.4982C196.203 39.8734 196.113 39.2589 196.113 38.6546Z" fill="#907910"/>
</svg>
