<svg width="257" height="88" viewBox="0 0 257 88" fill="none" xmlns="http://www.w3.org/2000/svg">
<g clip-path="url(#clip0_3_1458)">
<path d="M60.28 2.32494C62.8184 3.54524 65.4146 4.67694 66.0492 4.84023C66.6838 5.00352 68.6309 5.34572 70.3761 5.60049C72.1213 5.85555 74.328 6.26 75.2799 6.49943C76.2318 6.73915 77.5472 7.24753 78.2031 7.62969C78.8591 8.01214 79.9624 8.9574 80.655 9.73098C81.3476 10.5043 82.8191 12.8852 83.9247 15.0221C85.8684 18.7777 86.0717 19.0475 90.0551 23.1435C93.1906 26.3676 94.3557 27.7761 94.9309 29.0369C95.5433 30.3794 95.6841 31.1141 95.6725 32.9068C95.665 34.1239 95.3895 36.6079 95.0604 38.4272C94.7316 40.2466 94.4624 42.331 94.4624 43.0595C94.4624 43.7879 94.731 46.0125 95.0593 48.0029C95.3875 49.9933 95.6544 52.5338 95.6526 53.6484C95.6509 54.763 95.4446 56.2523 95.1945 56.9578C94.9442 57.6637 94.4235 58.6567 94.0372 59.1648C93.651 59.6732 91.6667 61.7666 89.6273 63.817C86.0582 67.4058 85.845 67.6901 83.9169 71.4251C82.7498 73.6868 81.3534 75.9262 80.5694 76.7941C79.8139 77.6305 78.5493 78.6131 77.6848 79.0358C76.8382 79.4498 75.1068 79.9901 73.8376 80.2364C72.5684 80.4831 70.816 80.7703 69.9434 80.8751C69.0708 80.9799 67.5131 81.2564 66.4819 81.4892C65.4503 81.7222 62.9806 82.7375 60.9922 83.7462C59.0044 84.7546 56.6766 85.7884 55.8198 86.0438C54.9628 86.2991 53.4741 86.5073 52.5112 86.5064C51.5486 86.5056 50.2416 86.3643 49.607 86.1926C48.9724 86.0206 46.4412 84.9265 43.982 83.7613C40.1675 81.9535 39.0875 81.5731 36.6263 81.1692C35.0398 80.9087 32.6384 80.4929 31.2898 80.2448C29.9413 79.997 28.1854 79.4851 27.3881 79.1076C26.5908 78.7301 25.5065 77.9973 24.9786 77.4794C24.451 76.9617 23.6638 76.0127 23.2297 75.3709C22.7956 74.729 21.6755 72.7056 20.7406 70.8744C19.1226 67.706 18.8442 67.3493 14.9786 63.4919C11.9907 60.5107 10.7146 59.0174 10.153 57.8464C9.73326 56.9706 9.3121 55.6026 9.2172 54.8065C9.12259 54.0103 9.1647 52.5772 9.31095 51.6218C9.4572 50.6664 9.81258 48.3584 10.1005 46.4928L10.624 43.1006L9.93979 38.9655C9.56335 36.691 9.2573 33.8364 9.25989 32.6222C9.26364 30.791 9.4047 30.124 10.0866 28.7138C10.7143 27.4153 11.7565 26.1918 14.4937 23.539C16.4653 21.6282 18.4975 19.4135 19.0095 18.6173C19.5215 17.8211 20.6373 15.8018 21.4891 14.1298C22.6176 11.9148 23.5118 10.6117 24.7839 9.3274C26.037 8.0628 26.9883 7.39345 28.1517 6.95715C29.0436 6.62276 31.6397 6.06806 33.9209 5.7244C36.202 5.38075 38.8304 4.84486 39.7619 4.53364C40.693 4.22212 42.7699 3.3032 44.3772 2.49141C45.9842 1.67961 47.9484 0.7717 48.7416 0.47379C49.8632 0.0525486 51.0355 -0.0678885 53.1667 -0.000142414L55.6646 0.106688L60.28 2.32494Z" fill="#E8C300"/>
<path fill-rule="evenodd" clip-rule="evenodd" d="M173.698 22.2393V21.2207C173.698 20.2191 173.751 20.202 176.924 20.202C180.097 20.202 180.15 20.2191 180.15 21.2207C180.15 22.2027 180.244 22.2393 182.772 22.2393C185.299 22.2393 185.393 22.2027 185.393 21.2207C185.393 20.2191 185.447 20.202 188.619 20.202C191.792 20.202 191.846 20.2191 191.846 21.2207V22.2393H195.879H199.911V23.6508V25.0623L195.979 25.1788L192.047 25.2953L191.926 27.6383L191.805 29.9812H182.772H173.738L173.617 27.6383L173.496 25.2953L169.564 25.1788L165.632 25.0623V23.6508V22.2393H169.665H173.698ZM182.772 27.1289C185.299 27.1289 185.393 27.0923 185.393 26.1103C185.393 25.1283 185.299 25.0916 182.772 25.0916C180.244 25.0916 180.15 25.1283 180.15 26.1103C180.15 27.0923 180.244 27.1289 182.772 27.1289ZM171.883 34.0558H164.019V32.426V30.7961H182.973H201.928V32.426V34.0558H193.862C186.065 34.0558 185.796 34.0831 185.796 34.8707C185.796 35.6506 186.065 35.6857 192.047 35.6857H198.298V41.7976V47.9096H182.772H167.245V41.7976V35.6857H173.496C179.478 35.6857 179.747 35.6506 179.747 34.8707C179.747 34.0835 179.478 34.0558 171.883 34.0558ZM179.8 40.5752L179.673 39.4547C179.551 38.3855 179.433 38.3289 177.109 38.2152C175.769 38.1496 174.544 38.2258 174.387 38.3847C174.328 38.4441 174.273 38.559 174.228 38.707C174.151 38.9553 174.101 39.2967 174.101 39.6246C174.101 40.5308 174.234 40.5752 176.951 40.5752H179.8ZM191.496 40.5752L191.368 39.4547C191.247 38.3855 191.128 38.3289 188.804 38.2152C187.464 38.1496 186.239 38.2258 186.082 38.3847C185.925 38.5436 185.796 39.1014 185.796 39.6246C185.796 40.5308 185.929 40.5752 188.646 40.5752H191.496ZM179.747 45.5019V44.2612V43.02H176.897H174.047L174.175 44.1406C174.299 45.2256 174.389 45.2648 177.025 45.3817L179.747 45.5019ZM191.442 45.4648V44.2424V43.02H188.619H185.796V44.2424V45.4648H188.619H191.442ZM165.508 51.9565C165.687 51.7818 167.648 50.9004 169.866 49.9983C172.084 49.0961 173.997 48.3489 174.116 48.3375C174.184 48.3312 174.456 48.5815 174.826 48.9776C175.114 49.2851 175.461 49.6805 175.818 50.112L177.303 51.9064L176.387 52.5131C175.883 52.8464 174.616 53.4128 173.57 53.7714C172.525 54.13 170.708 54.5374 169.532 54.6772C167.484 54.9205 167.349 54.8756 166.289 53.6027C165.681 52.8721 165.329 52.1313 165.508 51.9565ZM188.246 51.3087C188.151 51.2276 188.593 50.6127 189.228 49.9429C189.863 49.2726 190.794 48.7245 191.297 48.7245C191.799 48.7245 193.781 49.2579 195.701 49.9098C197.622 50.5618 199.372 51.2765 199.591 51.4977C199.854 51.7626 199.467 52.6073 198.461 53.9686L196.932 56.0373L192.675 53.7469C191.516 53.1237 190.443 52.5401 189.642 52.0997C188.826 51.6502 188.293 51.3498 188.246 51.3087Z" fill="#181818"/>
<path d="M231.734 41.7669L235.079 39.7113L238.425 37.6552L239.729 39.1412C240.447 39.9586 241.037 40.7764 241.04 40.9585C241.043 41.1407 239.912 41.8024 238.525 42.4295C237.139 43.0566 235.536 43.6828 234.963 43.821C234.153 44.0161 233.676 43.8145 232.827 42.9196L231.734 41.7669Z" fill="#181818"/>
<path d="M213.834 40.0707L214.799 39.0329C215.537 38.2391 216.01 38.0549 216.81 38.2497C217.386 38.3899 219.094 39.0581 220.607 39.7349L223.357 40.9654L221.745 42.5953L220.132 44.2252L217.979 42.9066C216.795 42.1817 215.378 41.247 214.83 40.8293L213.834 40.0707Z" fill="#181818"/>
<path fill-rule="evenodd" clip-rule="evenodd" d="M224.64 15.6591C224.236 16.1158 221.91 18.231 219.47 20.36C217.03 22.489 213.644 25.2186 211.946 26.4263L208.858 28.6217L209.728 30.241C210.206 31.1313 210.789 31.8615 211.022 31.8635C211.256 31.8651 212.967 31.124 214.825 30.2157C217.729 28.7974 218.254 28.6539 218.555 29.1971C218.819 29.6738 219.594 29.8295 221.708 29.8295H224.511V31.0518V32.2742H219.268H214.025V34.719V37.1638H219.268H224.511V40.831V44.4982H217.453H210.396V46.943V49.3877H227.737H245.079V46.943V44.4982H237.416H229.754V40.831V37.1638H235.622H241.489L241.369 34.8209L241.248 32.478L235.501 32.3651L229.754 32.2519V31.0409V29.8295H233.182C236.569 29.8295 236.61 29.8176 236.61 28.8108C236.61 28.7049 236.614 28.6027 236.621 28.5066C236.628 28.4148 236.639 28.3285 236.652 28.2497C236.697 27.9745 236.774 27.7921 236.862 27.7921C237.001 27.7921 238.68 28.4196 240.593 29.1869C242.505 29.9541 244.39 30.6419 244.779 30.7149C245.253 30.8041 245.82 30.2886 246.494 29.1543L247.5 27.4601L244.777 25.9565C243.279 25.1293 239.287 22.8019 235.905 20.7842C232.523 18.7664 229.832 16.9919 229.925 16.8407C230.017 16.6895 229.031 16.1753 227.733 15.6978L225.374 14.8295L224.64 15.6591ZM229.793 23.31L232.72 25.3473H227.724H222.726L224.713 23.31C225.805 22.1895 226.736 21.2727 226.782 21.2727C226.828 21.2727 228.183 22.1895 229.793 23.31Z" fill="#181818"/>
<path d="M122.479 24.2011V20.9414V17.6817H125.504H128.529V20.9414V24.2011H130.344H132.158V26.8497V29.4982H130.344H128.529V32.6104V35.7222L130.7 35.4647C132.714 35.2255 132.89 35.2732 133.115 36.1215C133.248 36.6247 133.36 37.5505 133.363 38.1792C133.368 39.1665 133.075 39.4582 131.215 40.3184C130.031 40.8665 127.717 41.6582 126.073 42.0783C124.429 42.498 122.041 42.9698 120.765 43.1263L118.447 43.4107V40.3253V37.24L119.556 37.2343C120.165 37.2315 121.073 37.1182 121.572 36.9833C122.427 36.7519 122.479 36.5269 122.479 33.1177V29.4982H120.665H118.85V26.8497V24.2011H120.665H122.479Z" fill="#181818"/>
<path fill-rule="evenodd" clip-rule="evenodd" d="M142.241 18.7004V22.5713H141.031H139.821V19.0883V15.6057L137.3 15.7267L134.78 15.8481L134.668 18.7004C134.567 21.2751 134.442 21.6517 133.384 22.5713C132.232 23.5728 132.22 23.629 132.629 25.9329C132.95 27.7375 133.208 28.2758 133.754 28.2758C134.326 28.2758 134.514 28.7615 134.723 30.7805C134.865 32.1577 134.983 35.0458 134.984 37.198C134.985 39.3503 135.176 41.8036 135.409 42.6499C135.642 43.4966 136.384 44.8242 137.058 45.5999C137.87 46.5343 138.976 47.218 140.336 47.6259C141.512 47.9791 143.959 48.2416 146.072 48.2416C148.191 48.2416 150.632 47.9791 151.816 47.6238C153.118 47.2331 154.254 46.5518 154.903 45.7715C155.469 45.0931 156.153 43.7892 156.424 42.8748C156.912 41.2315 156.9 41.1957 155.433 39.8372C154.616 39.0809 153.776 38.4624 153.566 38.4624C153.356 38.4624 153.078 38.8002 152.948 39.213C152.818 39.6257 152.247 40.4048 151.679 40.9447C150.712 41.8627 150.35 41.9259 146.056 41.9259C142.202 41.9259 141.351 41.8101 140.75 41.2038C140.125 40.5743 140.034 39.6653 140.028 34.0732L140.023 27.6646L141.132 27.5358L142.241 27.4067V32.9347V38.4624H144.839H147.437L147.561 36.7307L147.685 34.999L148.645 36.5579C149.47 37.8993 149.751 38.0806 150.661 37.8577C151.242 37.7147 152.334 37.1002 153.087 36.4919C153.84 35.8836 154.793 34.7516 155.204 33.9766C155.834 32.7909 155.953 31.6366 155.953 26.716V20.8648L154.037 21.0979C152.983 21.2262 151.078 21.4479 149.802 21.5905L147.483 21.8501V18.3398V14.8295H144.862H142.241V18.7004ZM150.334 29.9631C150.518 28.7872 150.568 27.5594 150.444 27.2355C150.321 26.9112 149.725 26.6459 149.121 26.6459C148.516 26.6459 147.9 26.7682 147.752 26.9177C147.604 27.0668 147.483 28.6254 147.483 30.3812C147.483 32.1365 147.645 33.5728 147.842 33.5728C148.039 33.5728 148.606 33.242 149.1 32.8374C149.704 32.3427 150.108 31.4015 150.334 29.9631Z" fill="#181818"/>
<path d="M90.7256 22.8305C90.3672 22.7197 90.4637 22.2707 91.0682 21.2354C91.6035 20.319 92.2155 19.7946 92.7499 19.7946C93.2119 19.7946 95.2358 20.0007 97.2468 20.253C99.2585 20.5052 101.055 20.8499 101.239 21.0194C101.423 21.1889 101.196 22.0767 100.733 22.9923C100.271 23.9083 99.6665 24.5876 99.3901 24.502C99.2132 24.4472 98.3499 24.2731 97.1983 24.0567C96.5517 23.9351 95.814 23.8002 95.0563 23.6655C93.8818 23.4568 92.7566 23.2476 91.943 23.0887C91.2967 22.9626 90.8473 22.868 90.7256 22.8305Z" fill="#181818"/>
<path fill-rule="evenodd" clip-rule="evenodd" d="M77.2299 24.156L75.334 25.6478L76.792 27.3049C77.5942 28.2169 78.955 29.7473 79.8163 30.7061C80.7524 31.7479 81.5779 32.3355 81.8678 32.166C82.1344 32.0095 83.0335 31.347 83.8649 30.6934L85.3773 29.5053V32.3384C85.3773 33.8965 85.1099 36.7194 84.7838 38.6112C84.4569 40.5035 83.9154 42.7152 83.5798 43.5265C83.2443 44.3378 82.7882 45.1148 82.5665 45.2533C82.3203 45.407 82.2317 45.0606 82.3392 44.3647C82.4361 43.7372 82.6133 40.9778 82.733 38.2323L82.9508 33.2409H78.7198H74.4884V35.9208V38.6003L75.8783 38.4792C76.6427 38.4128 77.3575 38.4487 77.4666 38.5591C77.5761 38.6695 77.5407 41.0463 77.3879 43.8411L77.1098 48.9221L75.9 49.1434C74.9055 49.3251 74.7019 49.5488 74.7566 50.4004C74.7929 50.9705 75.1009 52.1089 75.4411 52.9308C76.0122 54.3125 76.1386 54.3948 77.1145 54.0195C77.6955 53.7966 79.3835 53.6145 80.8666 53.6145C82.3687 53.6149 85.4234 54.0705 87.7647 54.6437C90.0762 55.2097 93.6148 55.8478 95.6289 56.0622C97.643 56.2769 100.944 56.4554 102.965 56.4594C104.986 56.4631 107.481 56.3498 108.51 56.2072L110.381 55.9481V53.5587V51.1693H104.35C99.5716 51.1693 97.1641 50.9509 92.7558 50.1172C89.6957 49.5387 86.9562 48.991 86.6683 48.8997C86.2851 48.7791 86.4343 48.2339 87.222 46.8767C87.8144 45.8548 88.6304 43.9731 89.0349 42.6949L89.7698 40.3715L89.7918 44.548L89.8135 48.7245H91.6283H93.4431V46.4835C93.4431 44.7631 93.5833 44.2424 94.048 44.2424C94.5234 44.2424 94.653 44.8084 94.653 46.8909V49.5395H96.0645H97.476V46.8909C97.476 44.5358 97.563 44.2424 98.2633 44.2424C98.9478 44.2424 99.0667 44.5761 99.1707 46.7891C99.2904 49.3272 99.2951 49.3361 100.582 49.4621L101.872 49.5879L101.993 47.0173C102.102 44.7049 102.205 44.4331 103.021 44.3157C103.757 44.2106 103.929 44.3809 103.929 45.2126C103.929 45.7773 103.666 46.3877 103.345 46.569C102.846 46.8514 102.874 47.1534 103.536 48.6471C104.295 50.3589 104.343 50.3894 105.834 50.1176C106.671 49.9648 107.511 49.7497 107.7 49.6401C107.889 49.5301 108.309 48.8003 108.632 48.0184C108.997 47.1362 109.31 44.4498 109.459 40.9375L109.698 35.2782H100.16C91.9489 35.2782 90.6201 35.193 90.6201 34.667C90.6201 34.1422 91.8748 34.0558 99.4924 34.0558H108.365V29.5737V25.0916H96.7076H85.0508L85.267 26.7214C85.3863 27.6179 85.3481 28.3513 85.1831 28.3513C85.0185 28.3513 83.707 27.0678 82.2695 25.4991C80.8316 23.9303 79.5363 22.6509 79.3909 22.6558C79.2452 22.6607 78.2728 23.3358 77.2299 24.156ZM103.122 30.7961V29.7774V28.7588H96.8711H90.6201V29.7774V30.7961H96.8711H103.122ZM94.653 39.5566C94.653 40.5524 94.4706 40.9827 94.048 40.9827C93.6254 40.9827 93.4431 40.5524 93.4431 39.5566C93.4431 38.5607 93.6254 38.1304 94.048 38.1304C94.4706 38.1304 94.653 38.5607 94.653 39.5566ZM98.2826 40.9827C98.9356 40.9827 99.0892 40.7109 99.0892 39.5566C99.0892 38.6398 98.8974 38.1304 98.5516 38.1304C98.3322 38.1304 98.0758 38.1976 97.8978 38.2933C97.8356 38.3267 97.7832 38.3635 97.745 38.4022C97.5969 38.5513 97.476 39.1931 97.476 39.8284C97.476 40.7109 97.6658 40.9827 98.2826 40.9827ZM103.929 39.3093C103.929 40.0109 103.669 40.5887 103.287 40.7366C102.935 40.8735 102.481 40.8821 102.279 40.7561C102.077 40.6302 101.912 40.1103 101.912 39.6006C101.912 39.0909 102.033 38.5513 102.181 38.4022C102.329 38.2527 102.783 38.1304 103.189 38.1304C103.736 38.1304 103.929 38.4377 103.929 39.3093ZM84.7723 48.7958L83.7948 47.7413C83.2569 47.1615 82.6547 46.6872 82.4558 46.6872C82.2573 46.6872 82.1529 47.0995 82.2234 47.604C82.3191 48.2828 82.6669 48.5567 83.5625 48.6581L84.7723 48.7958Z" fill="#181818"/>
<path d="M28.3003 72.383L31.7111 64.9682H33.0034L36.393 72.383H35.1431L32.8763 67.4575C32.8268 67.3445 32.7704 67.2174 32.7068 67.0761C32.6432 66.9278 32.5797 66.776 32.5161 66.6206C32.4526 66.4653 32.389 66.3099 32.3255 66.1546C32.269 65.9992 32.2195 65.8509 32.1772 65.7097L32.4844 65.6991C32.4279 65.8544 32.3678 66.0133 32.3043 66.1758C32.2478 66.3311 32.1878 66.4865 32.1242 66.6418C32.0606 66.7901 31.9971 66.9384 31.9335 67.0867C31.87 67.228 31.8064 67.3657 31.7429 67.4998L29.4972 72.383H28.3003ZM29.7938 70.6141L30.2387 69.5124H34.3487L34.6135 70.6141H29.7938Z" fill="#181818"/>
<path d="M39.5195 72.383V64.5445H40.6106V72.383H39.5195Z" fill="#181818"/>
<path d="M44.7869 72.383V64.5445H45.8779V72.383H44.7869Z" fill="#181818"/>
<path d="M54.066 72.383L57.4768 64.9682H58.7691L62.1588 72.383H60.9089L58.642 67.4575C58.5926 67.3445 58.5361 67.2174 58.4725 67.0761C58.409 66.9278 58.3454 66.776 58.2819 66.6206C58.2183 66.4653 58.1548 66.3099 58.0912 66.1546C58.0347 65.9992 57.9853 65.8509 57.9429 65.7097L58.2501 65.6991C58.1936 65.8544 58.1336 66.0133 58.07 66.1758C58.0135 66.3311 57.9535 66.4865 57.89 66.6418C57.8264 66.7901 57.7628 66.9384 57.6993 67.0867C57.6357 67.228 57.5722 67.3657 57.5086 67.4998L55.263 72.383H54.066ZM55.5596 70.6141L56.0045 69.5124H60.1144L60.3792 70.6141H55.5596Z" fill="#181818"/>
<path d="M68.6643 72.489C68.3324 72.489 68.0146 72.4431 67.711 72.3513C67.4073 72.2595 67.1354 72.1429 66.8954 72.0017C66.6623 71.8534 66.4681 71.698 66.3128 71.5356C66.1574 71.3661 66.0585 71.2108 66.0162 71.0695L66.4505 70.9954V72.3513H65.3594V64.5445H66.4505V68.093L66.1221 68.0718C66.1645 67.9235 66.2598 67.7717 66.4081 67.6164C66.5564 67.461 66.7471 67.3162 66.9801 67.1821C67.2131 67.0408 67.4744 66.9278 67.7639 66.8431C68.0605 66.7513 68.3748 66.7054 68.7067 66.7054C69.2928 66.7054 69.8189 66.829 70.285 67.0761C70.7581 67.3233 71.1324 67.6623 71.4078 68.093C71.6903 68.5238 71.8315 69.0216 71.8315 69.5866C71.8315 70.1445 71.6938 70.6423 71.4184 71.0801C71.1501 71.518 70.7758 71.864 70.2956 72.1182C69.8224 72.3654 69.2787 72.489 68.6643 72.489ZM68.5584 71.4827C68.9892 71.4827 69.3705 71.4015 69.7024 71.239C70.0343 71.0695 70.2956 70.8436 70.4863 70.5611C70.6769 70.2716 70.7723 69.9467 70.7723 69.5866C70.7723 69.2264 70.6769 68.9051 70.4863 68.6227C70.2956 68.3402 70.0343 68.1177 69.7024 67.9553C69.3705 67.7929 68.9892 67.7117 68.5584 67.7117C68.1206 67.7117 67.7322 67.7929 67.3932 67.9553C67.0613 68.1177 66.7965 68.3402 66.5988 68.6227C66.4081 68.9051 66.3128 69.2264 66.3128 69.5866C66.3128 69.9467 66.4081 70.2716 66.5988 70.5611C66.7965 70.8436 67.0613 71.0695 67.3932 71.239C67.7322 71.4015 68.1206 71.4827 68.5584 71.4827Z" fill="#181818"/>
<path d="M78.0232 72.489C77.3524 72.489 76.7557 72.3654 76.2331 72.1182C75.7176 71.8711 75.3115 71.5286 75.0149 71.0907C74.7254 70.6529 74.5806 70.1551 74.5806 69.5972C74.5806 69.0322 74.7254 68.5344 75.0149 68.1036C75.3115 67.6658 75.7176 67.3233 76.2331 67.0761C76.7557 66.829 77.3524 66.7054 78.0232 66.7054C78.6941 66.7054 79.2873 66.829 79.8028 67.0761C80.3183 67.3233 80.7244 67.6658 81.021 68.1036C81.3176 68.5344 81.4659 69.0322 81.4659 69.5972C81.4659 70.1551 81.3176 70.6529 81.021 71.0907C80.7244 71.5286 80.3183 71.8711 79.8028 72.1182C79.2873 72.3654 78.6941 72.489 78.0232 72.489ZM78.0232 71.4933C78.4681 71.4933 78.8671 71.412 79.2202 71.2496C79.5733 71.0872 79.8522 70.8648 80.057 70.5823C80.2689 70.2928 80.3677 69.9644 80.3536 69.5972C80.3677 69.2229 80.2689 68.8945 80.057 68.6121C79.8522 68.3296 79.5733 68.1071 79.2202 67.9447C78.8671 67.7823 78.4681 67.7011 78.0232 67.7011C77.5854 67.7011 77.1864 67.7823 76.8263 67.9447C76.4732 68.1071 76.1942 68.3331 75.9895 68.6227C75.7847 68.9051 75.6858 69.23 75.6929 69.5972C75.6858 69.9644 75.7847 70.2928 75.9895 70.5823C76.1942 70.8648 76.4732 71.0872 76.8263 71.2496C77.1864 71.412 77.5854 71.4933 78.0232 71.4933Z" fill="#181818"/>
<path d="M87.179 72.489C86.72 72.489 86.3139 72.383 85.9608 72.1712C85.6078 71.9523 85.3324 71.6416 85.1346 71.239C84.944 70.8294 84.8486 70.3492 84.8486 69.7984V66.8219H85.9397V69.4277C85.9397 69.8585 85.9997 70.2257 86.1197 70.5293C86.2398 70.8259 86.4234 71.0519 86.6706 71.2073C86.9248 71.3626 87.2426 71.4403 87.6239 71.4403C87.8922 71.4403 88.1429 71.3979 88.376 71.3132C88.609 71.2284 88.8138 71.1084 88.9903 70.953C89.1669 70.7977 89.3046 70.607 89.4035 70.381C89.5094 70.1551 89.5623 69.9079 89.5623 69.6395V66.8219H90.6534V72.383H89.5623V71.2178L89.753 71.0907C89.6612 71.3167 89.4953 71.5392 89.2552 71.7581C89.0221 71.9699 88.7291 72.1465 88.376 72.2877C88.0299 72.4219 87.631 72.489 87.179 72.489Z" fill="#181818"/>
<path d="M95.5681 72.383V65.1695H96.6592V72.383H95.5681ZM93.958 67.8812V66.8219H98.5658V67.8812H93.958Z" fill="#181818"/>
<path d="M110.739 72.489C110.167 72.489 109.623 72.4042 109.108 72.2347C108.599 72.0582 108.147 71.8075 107.752 71.4827C107.356 71.1578 107.046 70.7588 106.82 70.2857C106.601 69.8126 106.491 69.2759 106.491 68.6756C106.491 68.146 106.601 67.6517 106.82 67.1926C107.046 66.7336 107.356 66.3346 107.752 65.9957C108.154 65.6497 108.62 65.3813 109.15 65.1906C109.68 65 110.248 64.9046 110.855 64.9046C111.35 64.9046 111.809 64.9647 112.232 65.0847C112.663 65.1977 113.045 65.3495 113.376 65.5402C113.708 65.7309 113.97 65.9392 114.16 66.1652L113.419 66.9808C113.179 66.7831 112.921 66.6136 112.646 66.4723C112.377 66.3311 112.091 66.2217 111.788 66.144C111.484 66.0592 111.173 66.0169 110.855 66.0169C110.41 66.0169 109.994 66.084 109.605 66.2181C109.224 66.3523 108.889 66.5394 108.599 66.7795C108.31 67.0196 108.084 67.3021 107.921 67.6269C107.766 67.9447 107.688 68.2943 107.688 68.6756C107.688 69.1134 107.773 69.5018 107.942 69.8408C108.112 70.1798 108.341 70.4622 108.631 70.6882C108.927 70.9142 109.263 71.0872 109.637 71.2073C110.011 71.3202 110.403 71.3767 110.813 71.3767C111.201 71.3767 111.565 71.3379 111.904 71.2602C112.25 71.1755 112.55 71.059 112.804 70.9107C113.059 70.7553 113.256 70.5788 113.398 70.381C113.539 70.1762 113.602 69.9573 113.588 69.7243L113.578 69.5654L113.747 69.7772H110.834V68.6544H114.806C114.821 68.7533 114.831 68.838 114.838 68.9087C114.845 68.9722 114.849 69.0252 114.849 69.0675C114.849 69.1099 114.849 69.1488 114.849 69.1841C114.849 69.7208 114.746 70.1974 114.542 70.6141C114.344 71.0236 114.061 71.3661 113.694 71.6416C113.327 71.917 112.893 72.1288 112.391 72.2771C111.89 72.4183 111.339 72.489 110.739 72.489Z" fill="#181818"/>
<path d="M120.983 72.489C120.313 72.489 119.716 72.3654 119.193 72.1182C118.678 71.8711 118.272 71.5286 117.975 71.0907C117.686 70.6529 117.541 70.1551 117.541 69.5972C117.541 69.0322 117.686 68.5344 117.975 68.1036C118.272 67.6658 118.678 67.3233 119.193 67.0761C119.716 66.829 120.313 66.7054 120.983 66.7054C121.654 66.7054 122.247 66.829 122.763 67.0761C123.278 67.3233 123.685 67.6658 123.981 68.1036C124.278 68.5344 124.426 69.0322 124.426 69.5972C124.426 70.1551 124.278 70.6529 123.981 71.0907C123.685 71.5286 123.278 71.8711 122.763 72.1182C122.247 72.3654 121.654 72.489 120.983 72.489ZM120.983 71.4933C121.428 71.4933 121.827 71.412 122.18 71.2496C122.533 71.0872 122.812 70.8648 123.017 70.5823C123.229 70.2928 123.328 69.9644 123.314 69.5972C123.328 69.2229 123.229 68.8945 123.017 68.6121C122.812 68.3296 122.533 68.1071 122.18 67.9447C121.827 67.7823 121.428 67.7011 120.983 67.7011C120.546 67.7011 120.147 67.7823 119.786 67.9447C119.433 68.1071 119.154 68.3331 118.95 68.6227C118.745 68.9051 118.646 69.23 118.653 69.5972C118.646 69.9644 118.745 70.2928 118.95 70.5823C119.154 70.8648 119.433 71.0872 119.786 71.2496C120.147 71.412 120.546 71.4933 120.983 71.4933Z" fill="#181818"/>
<path d="M127.894 72.383V64.5445H128.985V72.383H127.894Z" fill="#181818"/>
<path d="M135.398 72.489C134.77 72.489 134.219 72.3654 133.746 72.1182C133.28 71.8711 132.916 71.5286 132.655 71.0907C132.401 70.6529 132.274 70.1551 132.274 69.5972C132.274 69.0322 132.408 68.5344 132.676 68.1036C132.944 67.6658 133.315 67.3233 133.788 67.0761C134.269 66.829 134.816 66.7054 135.43 66.7054C135.804 66.7054 136.154 66.7513 136.479 66.8431C136.804 66.9349 137.09 67.0585 137.337 67.2138C137.584 67.3692 137.775 67.5351 137.909 67.7117C138.043 67.8882 138.11 68.0648 138.11 68.2413L137.792 68.2625V64.5445H138.883V72.383H137.792V70.9107L138.004 70.9636C138.004 71.1331 137.934 71.3061 137.792 71.4827C137.651 71.6592 137.457 71.8252 137.21 71.9805C136.97 72.1288 136.691 72.2524 136.373 72.3513C136.062 72.4431 135.737 72.489 135.398 72.489ZM135.61 71.5038C136.048 71.5038 136.433 71.4191 136.765 71.2496C137.104 71.0801 137.365 70.8542 137.549 70.5717C137.739 70.2822 137.835 69.9573 137.835 69.5972C137.835 69.237 137.739 68.9157 137.549 68.6332C137.365 68.3437 137.104 68.1177 136.765 67.9553C136.433 67.7858 136.048 67.7011 135.61 67.7011C135.172 67.7011 134.788 67.7858 134.456 67.9553C134.124 68.1177 133.862 68.3437 133.672 68.6332C133.481 68.9157 133.386 69.237 133.386 69.5972C133.386 69.9573 133.481 70.2822 133.672 70.5717C133.862 70.8542 134.124 71.0801 134.456 71.2496C134.788 71.4191 135.172 71.5038 135.61 71.5038Z" fill="#181818"/>
<path d="M145.579 72.489C144.894 72.489 144.283 72.3689 143.746 72.1288C143.209 71.8817 142.789 71.5462 142.486 71.1225C142.189 70.6917 142.041 70.2045 142.041 69.6607C142.041 69.2017 142.129 68.7921 142.306 68.432C142.482 68.0648 142.729 67.7541 143.047 67.4998C143.365 67.2456 143.732 67.0479 144.149 66.9066C144.572 66.7654 145.017 66.6948 145.483 66.6948C145.921 66.6948 146.331 66.7619 146.712 66.8961C147.093 67.0302 147.429 67.2174 147.718 67.4575C148.008 67.6976 148.23 67.9836 148.386 68.3155C148.548 68.6403 148.626 69.0005 148.619 69.3959L148.608 69.9361H142.994L142.75 69.0675H147.665L147.507 69.1735V68.9192C147.471 68.6791 147.355 68.4673 147.157 68.2837C146.959 68.1001 146.712 67.9588 146.415 67.86C146.126 67.7541 145.815 67.7011 145.483 67.7011C145.031 67.7011 144.625 67.7646 144.265 67.8918C143.912 68.0189 143.633 68.2201 143.428 68.4955C143.224 68.7709 143.121 69.1346 143.121 69.5866C143.121 69.9679 143.231 70.3033 143.45 70.5929C143.676 70.8754 143.986 71.0943 144.382 71.2496C144.784 71.405 145.243 71.4827 145.759 71.4827C146.253 71.4827 146.666 71.4156 146.998 71.2814C147.337 71.1472 147.627 70.9989 147.867 70.8365L148.365 71.6416C148.167 71.7969 147.916 71.9381 147.612 72.0653C147.316 72.1924 146.991 72.2948 146.638 72.3724C146.292 72.4501 145.939 72.489 145.579 72.489Z" fill="#181818"/>
<path d="M152.262 72.383V66.8219H153.354V68.2731L153.004 68.3261C153.145 68.0577 153.336 67.8035 153.576 67.5634C153.816 67.3162 154.102 67.1114 154.434 66.949C154.773 66.7866 155.147 66.7054 155.557 66.7054C156.093 66.7054 156.542 66.8078 156.902 67.0126C157.262 67.2103 157.534 67.4892 157.718 67.8494C157.901 68.2025 157.993 68.6085 157.993 69.0675V72.383H156.902V69.2158C156.902 68.9051 156.828 68.6368 156.68 68.4108C156.538 68.1848 156.344 68.0118 156.097 67.8918C155.857 67.7717 155.581 67.7117 155.271 67.7117C154.988 67.7117 154.731 67.7611 154.498 67.86C154.264 67.9588 154.06 68.0895 153.883 68.2519C153.714 68.4073 153.583 68.5803 153.491 68.7709C153.399 68.9546 153.354 69.1382 153.354 69.3218V72.383H152.813C152.651 72.383 152.524 72.383 152.432 72.383C152.34 72.383 152.284 72.383 152.262 72.383Z" fill="#181818"/>
<path d="M167.137 72.383V64.9682H171.141C171.578 64.9682 171.977 65.0706 172.338 65.2754C172.698 65.4802 172.987 65.7556 173.206 66.1016C173.425 66.4476 173.535 66.836 173.535 67.2668C173.535 67.7046 173.418 68.1036 173.185 68.4638C172.952 68.8168 172.641 69.1028 172.253 69.3218C171.871 69.5336 171.451 69.6395 170.992 69.6395H168.281V72.383H167.137ZM172.507 72.383L170.166 69.0358L171.374 68.7709L173.926 72.3936L172.507 72.383ZM168.281 68.5379H170.95C171.197 68.5379 171.427 68.4814 171.638 68.3684C171.85 68.2484 172.016 68.093 172.136 67.9024C172.263 67.7046 172.327 67.4928 172.327 67.2668C172.327 67.0408 172.26 66.8396 172.126 66.663C171.999 66.4794 171.822 66.3346 171.596 66.2287C171.37 66.1228 171.126 66.0698 170.865 66.0698H168.281V68.5379Z" fill="#181818"/>
<path d="M180.137 72.489C179.452 72.489 178.841 72.3689 178.305 72.1288C177.768 71.8817 177.348 71.5462 177.044 71.1225C176.747 70.6917 176.599 70.2045 176.599 69.6607C176.599 69.2017 176.687 68.7921 176.864 68.432C177.041 68.0648 177.288 67.7541 177.605 67.4998C177.923 67.2456 178.29 67.0479 178.707 66.9066C179.131 66.7654 179.576 66.6948 180.042 66.6948C180.48 66.6948 180.889 66.7619 181.271 66.8961C181.652 67.0302 181.987 67.2174 182.277 67.4575C182.566 67.6976 182.789 67.9836 182.944 68.3155C183.107 68.6403 183.184 69.0005 183.177 69.3959L183.167 69.9361H177.553L177.309 69.0675H182.224L182.065 69.1735V68.9192C182.03 68.6791 181.913 68.4673 181.715 68.2837C181.518 68.1001 181.271 67.9588 180.974 67.86C180.684 67.7541 180.374 67.7011 180.042 67.7011C179.59 67.7011 179.184 67.7646 178.824 67.8918C178.471 68.0189 178.192 68.2201 177.987 68.4955C177.782 68.7709 177.68 69.1346 177.68 69.5866C177.68 69.9679 177.789 70.3033 178.008 70.5929C178.234 70.8754 178.545 71.0943 178.94 71.2496C179.343 71.405 179.802 71.4827 180.317 71.4827C180.812 71.4827 181.225 71.4156 181.557 71.2814C181.896 71.1472 182.185 70.9989 182.425 70.8365L182.923 71.6416C182.725 71.7969 182.475 71.9381 182.171 72.0653C181.874 72.1924 181.549 72.2948 181.196 72.3724C180.85 72.4501 180.497 72.489 180.137 72.489Z" fill="#181818"/>
<path d="M187.573 72.383V65.1695H188.664V72.383H187.573ZM185.963 67.8812V66.8219H190.571V67.8812H185.963Z" fill="#181818"/>
<path d="M194.209 72.383V66.8219H195.311V68.7709L195.046 68.6015C195.152 68.2554 195.325 67.9377 195.565 67.6481C195.805 67.3586 196.084 67.1291 196.402 66.9596C196.719 66.7901 197.048 66.7054 197.387 66.7054C197.606 66.7054 197.817 66.7301 198.022 66.7795C198.234 66.8219 198.4 66.8819 198.52 66.9596L198.234 68.1036C198.1 68.0259 197.934 67.9659 197.736 67.9235C197.546 67.8812 197.365 67.86 197.196 67.86C196.914 67.86 196.656 67.9094 196.423 68.0083C196.19 68.1001 195.988 68.2272 195.819 68.3896C195.657 68.552 195.529 68.7321 195.438 68.9298C195.353 69.1276 195.311 69.3324 195.311 69.5442V72.383H194.209Z" fill="#181818"/>
<path d="M201.929 72.383V66.8219H203.02V72.383H201.929ZM202.458 65.519C202.225 65.519 202.045 65.459 201.918 65.3389C201.791 65.2189 201.728 65.0494 201.728 64.8305C201.728 64.6257 201.791 64.4597 201.918 64.3326C202.052 64.2055 202.232 64.142 202.458 64.142C202.691 64.142 202.872 64.202 202.999 64.322C203.126 64.4421 203.189 64.6116 203.189 64.8305C203.189 65.0353 203.122 65.2012 202.988 65.3283C202.861 65.4555 202.684 65.519 202.458 65.519Z" fill="#181818"/>
<path d="M210.02 72.489C209.335 72.489 208.724 72.3689 208.187 72.1288C207.651 71.8817 207.231 71.5462 206.927 71.1225C206.63 70.6917 206.482 70.2045 206.482 69.6607C206.482 69.2017 206.57 68.7921 206.747 68.432C206.923 68.0648 207.171 67.7541 207.488 67.4998C207.806 67.2456 208.173 67.0479 208.59 66.9066C209.014 66.7654 209.459 66.6948 209.925 66.6948C210.362 66.6948 210.772 66.7619 211.153 66.8961C211.535 67.0302 211.87 67.2174 212.16 67.4575C212.449 67.6976 212.672 67.9836 212.827 68.3155C212.989 68.6403 213.067 69.0005 213.06 69.3959L213.049 69.9361H207.435L207.192 69.0675H212.107L211.948 69.1735V68.9192C211.912 68.6791 211.796 68.4673 211.598 68.2837C211.401 68.1001 211.153 67.9588 210.857 67.86C210.567 67.7541 210.257 67.7011 209.925 67.7011C209.473 67.7011 209.067 67.7646 208.706 67.8918C208.353 68.0189 208.074 68.2201 207.87 68.4955C207.665 68.7709 207.562 69.1346 207.562 69.5866C207.562 69.9679 207.672 70.3033 207.891 70.5929C208.117 70.8754 208.428 71.0943 208.823 71.2496C209.226 71.405 209.685 71.4827 210.2 71.4827C210.694 71.4827 211.107 71.4156 211.439 71.2814C211.778 71.1472 212.068 70.9989 212.308 70.8365L212.806 71.6416C212.608 71.7969 212.357 71.9381 212.054 72.0653C211.757 72.1924 211.432 72.2948 211.079 72.3724C210.733 72.4501 210.38 72.489 210.02 72.489Z" fill="#181818"/>
<path d="M218.348 72.383L215.414 66.8219H216.674L218.973 71.3767L218.698 71.4721L221.123 66.8219H222.32L219.28 72.383H218.348Z" fill="#181818"/>
<path d="M227.982 72.489C227.297 72.489 226.686 72.3689 226.149 72.1288C225.613 71.8817 225.193 71.5462 224.889 71.1225C224.592 70.6917 224.444 70.2045 224.444 69.6607C224.444 69.2017 224.532 68.7921 224.709 68.432C224.885 68.0648 225.132 67.7541 225.45 67.4998C225.768 67.2456 226.135 67.0479 226.552 66.9066C226.976 66.7654 227.421 66.6948 227.887 66.6948C228.324 66.6948 228.734 66.7619 229.115 66.8961C229.497 67.0302 229.832 67.2174 230.122 67.4575C230.411 67.6976 230.634 67.9836 230.789 68.3155C230.951 68.6403 231.029 69.0005 231.022 69.3959L231.011 69.9361H225.397L225.154 69.0675H230.069L229.91 69.1735V68.9192C229.874 68.6791 229.758 68.4673 229.56 68.2837C229.362 68.1001 229.115 67.9588 228.819 67.86C228.529 67.7541 228.218 67.7011 227.887 67.7011C227.435 67.7011 227.029 67.7646 226.668 67.8918C226.315 68.0189 226.036 68.2201 225.832 68.4955C225.627 68.7709 225.524 69.1346 225.524 69.5866C225.524 69.9679 225.634 70.3033 225.853 70.5929C226.079 70.8754 226.389 71.0943 226.785 71.2496C227.187 71.405 227.646 71.4827 228.162 71.4827C228.656 71.4827 229.069 71.4156 229.401 71.2814C229.74 71.1472 230.03 70.9989 230.27 70.8365L230.768 71.6416C230.57 71.7969 230.319 71.9381 230.016 72.0653C229.719 72.1924 229.394 72.2948 229.041 72.3724C228.695 72.4501 228.342 72.489 227.982 72.489Z" fill="#181818"/>
<path d="M234.666 72.383V66.8219H235.767V68.7709L235.503 68.6015C235.608 68.2554 235.781 67.9377 236.022 67.6481C236.262 67.3586 236.541 67.1291 236.858 66.9596C237.176 66.7901 237.505 66.7054 237.843 66.7054C238.062 66.7054 238.274 66.7301 238.479 66.7795C238.691 66.8219 238.857 66.8819 238.977 66.9596L238.691 68.1036C238.557 68.0259 238.391 67.9659 238.193 67.9235C238.002 67.8812 237.822 67.86 237.653 67.86C237.37 67.86 237.113 67.9094 236.88 68.0083C236.647 68.1001 236.445 68.2272 236.276 68.3896C236.113 68.552 235.986 68.7321 235.894 68.9298C235.81 69.1276 235.767 69.3324 235.767 69.5442V72.383H234.666Z" fill="#181818"/>
<path d="M244.366 72.489C243.766 72.489 243.219 72.4078 242.725 72.2453C242.23 72.0829 241.817 71.8181 241.485 71.4509L242.227 70.773C242.488 71.0342 242.792 71.2355 243.138 71.3767C243.491 71.5109 243.879 71.578 244.303 71.578C244.472 71.578 244.642 71.5674 244.811 71.5462C244.988 71.525 245.154 71.4897 245.309 71.4403C245.465 71.3838 245.588 71.3096 245.68 71.2178C245.779 71.126 245.828 71.0131 245.828 70.8789C245.828 70.6529 245.662 70.487 245.33 70.381C245.168 70.3245 244.981 70.2716 244.769 70.2221C244.557 70.1727 244.324 70.1268 244.07 70.0844C243.646 69.9997 243.265 69.9079 242.926 69.809C242.594 69.7031 242.319 69.5654 242.1 69.3959C241.944 69.2688 241.824 69.117 241.74 68.9404C241.655 68.7639 241.612 68.5556 241.612 68.3155C241.612 68.0683 241.679 67.8494 241.814 67.6587C241.948 67.461 242.131 67.2915 242.364 67.1503C242.598 67.002 242.869 66.8925 243.18 66.8219C243.498 66.7442 243.84 66.7054 244.208 66.7054C244.511 66.7054 244.829 66.7372 245.161 66.8007C245.5 66.8643 245.818 66.9631 246.114 67.0973C246.418 67.2244 246.672 67.3904 246.877 67.5952L246.284 68.3261C246.107 68.1919 245.899 68.0683 245.659 67.9553C245.426 67.8423 245.182 67.7576 244.928 67.7011C244.681 67.6375 244.444 67.6058 244.218 67.6058C244.049 67.6058 243.876 67.6164 243.699 67.6375C243.523 67.6587 243.357 67.694 243.201 67.7435C243.053 67.7929 242.933 67.8635 242.841 67.9553C242.749 68.0401 242.703 68.146 242.703 68.2731C242.703 68.3578 242.728 68.4355 242.778 68.5061C242.827 68.5767 242.894 68.6403 242.979 68.6968C243.127 68.7886 243.325 68.8698 243.572 68.9404C243.826 69.004 244.109 69.064 244.419 69.1205C244.801 69.1911 245.157 69.2723 245.489 69.3641C245.821 69.4559 246.104 69.5795 246.337 69.7349C246.52 69.8549 246.662 69.9962 246.76 70.1586C246.859 70.3139 246.909 70.5011 246.909 70.72C246.909 71.0943 246.792 71.4156 246.559 71.6839C246.333 71.9452 246.03 72.1465 245.648 72.2877C245.267 72.4219 244.84 72.489 244.366 72.489Z" fill="#181818"/>
<path fill-rule="evenodd" clip-rule="evenodd" d="M38.8259 27.5408C38.8259 28.9059 37.7193 30.0124 36.3542 30.0124C34.9892 30.0124 33.8826 28.9059 33.8826 27.5408C33.8826 26.1758 34.9892 25.0692 36.3542 25.0692C37.7193 25.0692 38.8259 26.1758 38.8259 27.5408ZM58.9513 27.5408C58.9513 28.9059 57.8448 30.0124 56.4797 30.0124C55.1147 30.0124 54.0081 28.9059 54.0081 27.5408C54.0081 26.1758 55.1147 25.0692 56.4797 25.0692C57.8448 25.0692 58.9513 26.1758 58.9513 27.5408ZM43.0761 35.9946C42.9231 36.1778 42.8569 36.5555 42.9288 36.8343C43.0006 37.1131 43.5696 37.965 44.1928 38.7279C44.8737 39.5613 45.326 40.3362 45.326 40.6699C45.326 40.9753 45.0692 41.5283 44.7554 41.8991C44.4417 42.2697 43.8482 42.6835 43.4364 42.8185C42.8943 42.9965 42.5082 42.9965 42.0362 42.8192C41.6776 42.6846 41.1165 42.3205 40.7893 42.0102C40.4237 41.6636 39.998 41.4746 39.686 41.5205C39.4065 41.5617 39.0709 41.765 38.9401 41.9726C38.7662 42.2484 38.7898 42.5126 39.0286 42.956C39.2081 43.2894 39.7608 43.8223 40.257 44.14C41.0091 44.6219 41.4273 44.719 42.7729 44.724C44.2412 44.7296 44.482 44.6633 45.446 43.9882L46.5055 43.2464L46.9886 43.6976C47.2544 43.9459 47.8472 44.3048 48.3063 44.4953C48.7651 44.6861 49.5525 44.842 50.0559 44.842C50.5593 44.842 51.3467 44.6861 51.8055 44.4953C52.2646 44.3048 52.8788 43.9271 53.1705 43.6557C53.4624 43.3845 53.7966 42.9864 53.9135 42.7708C54.0507 42.5178 54.0406 42.2204 53.8849 41.9311C53.7507 41.6817 53.4133 41.4833 53.1236 41.4833C52.8373 41.4833 52.4103 41.6987 52.1742 41.962C51.9382 42.2254 51.422 42.5767 51.0271 42.7428C50.6127 42.9175 50.012 42.986 49.6059 42.9051C49.2192 42.8283 48.6128 42.4773 48.2585 42.125C47.9042 41.7728 47.5429 41.1611 47.4556 40.7657C47.3537 40.3051 47.3869 40.0167 47.5477 39.9634C47.6857 39.9178 48.2558 39.2825 48.8146 38.5521C49.475 37.689 49.8307 36.9982 49.8307 36.5788C49.8307 36.1968 49.6852 35.878 49.4743 35.7976C49.2784 35.7228 47.8211 35.6617 46.2361 35.6617C43.9601 35.6617 43.2954 35.7318 43.0761 35.9946Z" fill="#181818"/>
</g>
<defs>
<clipPath id="clip0_3_1458">
<rect width="256.667" height="88" fill="white"/>
</clipPath>
</defs>
</svg>
