<svg width="15" height="16" viewBox="0 0 15 16" fill="none" xmlns="http://www.w3.org/2000/svg">
<path fill-rule="evenodd" clip-rule="evenodd" d="M5.01969 0.0463594C6.19747 0.0463594 7.15348 1.51107 7.15348 3.31658C7.15348 5.12209 6.19747 6.5868 5.01969 6.5868C3.84191 6.5868 2.88591 5.12334 2.88591 3.31658C2.88716 1.51107 3.84191 0.0463594 5.01969 0.0463594ZM7.73235 7.96254C10.2307 7.96755 10.5415 9.62271 12.6477 12.4556C13.6977 14.5168 12.3345 15.8161 9.99769 15.2598C8.93769 14.7197 8.19218 14.5293 7.44417 14.5544C6.14861 14.5995 5.82159 15.454 4.31428 15.3938C3.15153 15.3625 2.6278 14.8751 2.52631 14.1321C2.4173 13.3427 2.72177 12.8441 3.09265 12.1913C4.53355 9.65028 6.02331 7.64429 7.73235 7.96254ZM0.898718 4.89656C0.0178889 5.24488 -0.262773 6.62188 0.270986 7.97131C0.804746 9.32075 1.9512 10.1327 2.83203 9.78434C3.71286 9.43602 3.99352 8.05902 3.45976 6.70959C2.926 5.36015 1.77955 4.54823 0.898718 4.89656ZM14.1024 4.89656C14.9832 5.24488 15.2639 6.62188 14.7301 7.97131C14.1964 9.32075 13.0486 10.1327 12.1691 9.78434C11.2882 9.43602 11.0076 8.05902 11.5413 6.70959C12.0751 5.36015 13.2216 4.54823 14.1024 4.89656ZM9.94256 0C11.1203 0 12.0763 1.46471 12.0763 3.27022C12.0763 5.07573 11.1203 6.54044 9.94256 6.54044C8.76478 6.54044 7.80878 5.07698 7.80878 3.27022C7.81003 1.46471 8.76478 0 9.94256 0Z" fill="#626161"/>
</svg>
